<svg xmlns="http://www.w3.org/2000/svg" viewBox="0 0 40.48 40.48"><defs><style>.\30 5cfcbd6-0208-44ec-bbf2-ce7f39c06e1d{fill:blue;}</style></defs><title>accessibility</title><g id="b1689c0e-4ce0-4b32-a427-2609e5c0f0b5" data-name="Layer 2"><g id="6fd6dbb7-7ca7-4329-a193-e58922e813ae" data-name="Layer 1"><path class="05cfcbd6-0208-44ec-bbf2-ce7f39c06e1d" d="M20.24,0A20.24,20.24,0,1,0,40.48,20.24,20.24,20.24,0,0,0,20.24,0ZM18.75,29.34a6.56,6.56,0,0,1-2.43-12.65c.1.69.21,1.5.35,2.47a4.18,4.18,0,1,0,6.21,4.22h.91l1,2A6.57,6.57,0,0,1,18.75,29.34ZM30.94,26.5,28.5,27.73a1.19,1.19,0,0,1-1.61-.56l-2.34-5H19.34a1.2,1.2,0,0,1-1.18-1C16.9,12.32,17,12.87,17,12.64A2.39,2.39,0,1,1,19.69,15l.18,1.22h4.84a.6.6,0,0,1,.6.6V18a.6.6,0,0,1-.6.6h-4.5l.17,1.19h4.93a1.2,1.2,0,0,1,1.08.69l2.14,4.56,1.35-.68a.6.6,0,0,1,.8.26l.53,1.07A.6.6,0,0,1,30.94,26.5Z"/></g></g></svg>