<svg xmlns="http://www.w3.org/2000/svg" viewBox="0 0 217.41 217.41"><defs><style>.\34 26e9970-b307-448b-87d3-ed49e06cbf89{fill:#daedfa;}.d679d173-51ea-47a3-9f55-ad6bcb9f3504{fill:#cfe7fa;}.\32 aa17ec1-c2e3-4b9f-8d5a-9012e755d19e{fill:blue;}.\32 829cc25-00ed-4df1-bc3b-72bad953b726{fill:#beefc9;}.a81ba2ba-403d-4759-96f3-b241daf972c7{fill:#80df96;}.fd64e889-fd24-42cd-aa00-c3b44d1533ea{fill:#535b7a;}.a4b7f321-d991-41d7-a0cb-54a7d11869ba{fill:#acd3f7;}.\34 05030fc-baac-43c1-9772-fae9eb97593a{fill:#fff;}</style></defs><title>code</title><g id="c3f597af-417c-4d92-9991-6af4db58df4a" data-name="Layer 2"><g id="6461d5d1-0547-4b6b-86f7-d94bc2c5c8a5" data-name="Layer 1"><g id="30d79e11-fc5e-40ec-8118-98928346a2c9" data-name="&lt;Group&gt;"><circle id="096c68fe-a43b-4436-86ae-9c1be9abea78" data-name="&lt;Path&gt;" class="426e9970-b307-448b-87d3-ed49e06cbf89" cx="108.71" cy="108.71" r="108.71" transform="translate(-45.03 108.71) rotate(-45)"/><g id="e27238fd-be10-45b0-a846-ae64ed898974" data-name="&lt;Group&gt;"><path id="c0cf1c77-49e3-4b97-8f71-82b12f0b996b" data-name="&lt;Path&gt;" class="d679d173-51ea-47a3-9f55-ad6bcb9f3504" d="M186.53,144.37a2.73,2.73,0,1,1-2.73-2.74A2.73,2.73,0,0,1,186.53,144.37Z"/><path id="7a94ffcb-b65b-48e1-884e-c3bb913dec80" data-name="&lt;Compound Path&gt;" class="2aa17ec1-c2e3-4b9f-8d5a-9012e755d19e" d="M183.8,147.69a3.32,3.32,0,1,1,3.32-3.32A3.32,3.32,0,0,1,183.8,147.69Zm0-5.47a2.15,2.15,0,1,0,2.15,2.15A2.15,2.15,0,0,0,183.8,142.22Z"/></g><g id="5ada9df1-4f60-4f5e-8d49-ccb54140f905" data-name="&lt;Group&gt;"><path id="df16d3d1-fac9-45e1-84d9-149b44ac375b" data-name="&lt;Path&gt;" class="2829cc25-00ed-4df1-bc3b-72bad953b726" d="M26.42,92.18a3.35,3.35,0,1,1-3.35-3.35A3.35,3.35,0,0,1,26.42,92.18Z"/><path id="9cd4ab1a-1234-46d1-a970-dff77d5ab5c4" data-name="&lt;Compound Path&gt;" class="a81ba2ba-403d-4759-96f3-b241daf972c7" d="M23.07,96.12A3.94,3.94,0,1,1,27,92.18,3.95,3.95,0,0,1,23.07,96.12Zm0-6.71a2.77,2.77,0,1,0,2.77,2.77A2.77,2.77,0,0,0,23.07,89.41Z"/></g><g id="31de9682-0936-44bf-8f5c-4c4aac76a783" data-name="&lt;Group&gt;"><polygon id="85bca05a-82ee-4fdc-9ca0-5c3e1c905eee" data-name="&lt;Path&gt;" class="2aa17ec1-c2e3-4b9f-8d5a-9012e755d19e" points="188.72 101.83 194.82 96.38 196.49 104.38 188.72 101.83"/><path id="82e23026-9618-4756-8a42-9ce5fe86ec57" data-name="&lt;Compound Path&gt;" class="2aa17ec1-c2e3-4b9f-8d5a-9012e755d19e" d="M196.49,105a.57.57,0,0,1-.18,0l-7.77-2.55a.59.59,0,0,1-.39-.43.61.61,0,0,1,.18-.56l6.1-5.45a.58.58,0,0,1,1,.32l1.68,8a.59.59,0,0,1-.58.7Zm-6.62-3.37,5.84,1.91-1.26-6Z"/></g><g id="c36a2004-2023-4440-bebb-73ec4a739162" data-name="&lt;Group&gt;"><polygon id="db98b7a0-656c-405d-a976-2157f4b61299" data-name="&lt;Path&gt;" class="d679d173-51ea-47a3-9f55-ad6bcb9f3504" points="25.42 143.35 17.02 133.95 29.36 131.37 25.42 143.35"/><path id="d59186b7-390f-41d3-8e8b-d0373094a94d" data-name="&lt;Compound Path&gt;" class="2aa17ec1-c2e3-4b9f-8d5a-9012e755d19e" d="M25.42,143.93a.59.59,0,0,1-.43-.19l-8.41-9.4a.58.58,0,0,1,.32-1l12.34-2.58a.58.58,0,0,1,.67.75l-3.93,12a.58.58,0,0,1-.44.39Zm-7.29-9.61,7.05,7.88,3.3-10Z"/></g><g id="b1c51257-a97c-46aa-9ced-9b8a97d9bd31" data-name="&lt;Group&gt;"><g id="5907c6cb-3061-4085-996a-538ce726891c" data-name="&lt;Group&gt;"><rect id="d26d8868-0ea7-497c-92ec-1191f671b1f2" data-name="&lt;Path&gt;" class="d679d173-51ea-47a3-9f55-ad6bcb9f3504" x="52.02" y="43.75" width="112.48" height="123.3" rx="2.76" ry="2.76"/></g><g id="44788560-ce5f-462e-8eab-22b0b26fe1ad" data-name="&lt;Group&gt;"><g id="8828b3e3-4aad-43dd-a2ee-869d06709da6" data-name="&lt;Group&gt;"><path id="9ea219dd-bbb5-48fb-9164-95ae4b00ca58" data-name="&lt;Compound Path&gt;" class="2aa17ec1-c2e3-4b9f-8d5a-9012e755d19e" d="M161.73,44.34a2.18,2.18,0,0,1,2.18,2.17V164.29a2.18,2.18,0,0,1-2.18,2.17H54.78a2.18,2.18,0,0,1-2.18-2.17V46.51a2.18,2.18,0,0,1,2.18-2.17h107m0-1.17H54.78a3.34,3.34,0,0,0-3.35,3.34V164.29a3.34,3.34,0,0,0,3.35,3.34h107a3.34,3.34,0,0,0,3.35-3.34V46.51a3.34,3.34,0,0,0-3.35-3.34Z"/></g></g></g><g id="a30074be-b2c1-48fc-a242-079d3409ecbf" data-name="&lt;Group&gt;"><rect id="4f4e5a05-8973-410d-9659-8914587a2e4d" data-name="&lt;Path&gt;" class="fd64e889-fd24-42cd-aa00-c3b44d1533ea" x="58.12" y="49.81" width="100.26" height="111.13"/></g><g id="fea31ebd-f31a-4177-9fc3-2d86f594b3f3" data-name="&lt;Group&gt;"><rect id="39be647c-7958-4d33-b84a-1f97ef530772" data-name="&lt;Path&gt;" class="2aa17ec1-c2e3-4b9f-8d5a-9012e755d19e" x="58.12" y="49.86" width="7.82" height="111.08"/></g><g id="2d00ddf6-3549-42f0-8e91-a0b743d4ca76" data-name="&lt;Group&gt;"><g id="572de21e-fe65-4c76-9e34-e3466c0d9b51" data-name="&lt;Group&gt;"><rect id="77cd7b18-eac2-4fc5-9c8a-7968c9aced96" data-name="&lt;Path&gt;" class="d679d173-51ea-47a3-9f55-ad6bcb9f3504" x="92.71" y="167.05" width="31.08" height="14.55" rx="0.59" ry="0.59"/></g><g id="f44daad2-95f1-4857-81ed-bfe945e8a973" data-name="&lt;Group&gt;"><g id="78fa4296-15ed-4d86-8cc9-c82fa1e37929" data-name="&lt;Group&gt;"><path id="7f98f9a0-7036-454f-8e82-c8d7003246fd" data-name="&lt;Compound Path&gt;" class="2aa17ec1-c2e3-4b9f-8d5a-9012e755d19e" d="M123.21,167.63V181H93.3V167.63h29.91m0-1.17H93.3a1.17,1.17,0,0,0-1.17,1.17V181a1.17,1.17,0,0,0,1.17,1.17h29.91a1.17,1.17,0,0,0,1.17-1.17V167.63a1.18,1.18,0,0,0-1.17-1.17Z"/></g></g></g><g id="82daefea-ca3c-46bd-a2a4-4e8e91ba2e0e" data-name="&lt;Group&gt;"><rect id="ddf04d59-c66d-4867-8375-848b6f93d079" data-name="&lt;Path&gt;" class="a4b7f321-d991-41d7-a0cb-54a7d11869ba" x="93.3" y="167.63" width="29.91" height="3.83"/></g><g id="767cd884-247c-4793-b303-16795e8d7fa0" data-name="&lt;Group&gt;"><rect id="e3002955-b1ad-4d5a-9996-1d5c4906c4d8" data-name="&lt;Rectangle&gt;" class="d679d173-51ea-47a3-9f55-ad6bcb9f3504" x="82.82" y="181.01" width="50.87" height="6.17"/><path id="6d876b7b-e9c4-4481-aeb0-1cd793fb5a05" data-name="&lt;Compound Path&gt;" class="2aa17ec1-c2e3-4b9f-8d5a-9012e755d19e" d="M133.69,187.77H82.82a.59.59,0,0,1-.59-.59V181a.59.59,0,0,1,.59-.58h50.87a.58.58,0,0,1,.58.58v6.17A.58.58,0,0,1,133.69,187.77ZM83.4,186.6h49.7v-5H83.4Z"/></g><g id="91fe598b-853a-4169-8466-defe5f53f92f" data-name="&lt;Group&gt;"><g id="e18fd337-6bac-4d13-b862-f5bdb23b0f79" data-name="&lt;Group&gt;"><rect id="ad8cb468-f075-4e67-9dfc-3e0f2a48d8af" data-name="&lt;Path&gt;" class="d679d173-51ea-47a3-9f55-ad6bcb9f3504" x="40.04" y="194.28" width="105.43" height="7.42" rx="0.59" ry="0.59"/></g><g id="6595f364-1dec-41ad-a0d9-6501e97810a3" data-name="&lt;Group&gt;"><path id="4c321c3b-2909-45a6-8337-0fcb28347237" data-name="&lt;Compound Path&gt;" class="2aa17ec1-c2e3-4b9f-8d5a-9012e755d19e" d="M144.88,194.87v6.24H40.62v-6.24H144.88m0-1.18H40.62a1.18,1.18,0,0,0-1.17,1.18v6.24a1.17,1.17,0,0,0,1.17,1.17H144.88a1.17,1.17,0,0,0,1.17-1.17v-6.24a1.17,1.17,0,0,0-1.17-1.18Z"/></g></g><g id="edc3e749-5ade-4214-9e1a-409ca345b5ae" data-name="&lt;Group&gt;"><g id="096faa26-8887-4919-a9a3-7937d4b1fccc" data-name="&lt;Group&gt;"><path id="f92378ea-c54c-48c9-9ddb-cde2da9b0631" data-name="&lt;Path&gt;" class="d679d173-51ea-47a3-9f55-ad6bcb9f3504" d="M155,201.7a.59.59,0,0,1-.51-.3.57.57,0,0,1,0-.59,13.18,13.18,0,0,1,22.76,0,.59.59,0,0,1,0,.59.61.61,0,0,1-.51.3Z"/></g><g id="fc289e96-37b1-4f27-9680-db5383e5414b" data-name="&lt;Group&gt;"><path id="4c005cf5-d616-4724-b431-9fbb92075fd8" data-name="&lt;Compound Path&gt;" class="2aa17ec1-c2e3-4b9f-8d5a-9012e755d19e" d="M165.91,194.87a12.6,12.6,0,0,1,10.88,6.24H155a12.59,12.59,0,0,1,10.87-6.24m0-1.18A13.84,13.84,0,0,0,154,200.52a1.14,1.14,0,0,0,0,1.17,1.17,1.17,0,0,0,1,.59h21.75a1.15,1.15,0,0,0,1-.59,1.17,1.17,0,0,0,0-1.17,13.85,13.85,0,0,0-11.89-6.83Z"/></g></g><g id="8ce58bba-0d12-4591-a55d-55aeeecdf5ee" data-name="&lt;Group&gt;"><g id="a0ec7333-4ab6-436b-910d-55b914f3b526" data-name="&lt;Group&gt;"><g id="0f018386-eba6-4437-8941-29c5533d97a8" data-name="&lt;Group&gt;"><g id="edc44c74-18ee-4491-93a1-320e13792106" data-name="&lt;Group&gt;"><path id="225cdc08-ddc3-4056-9069-9b2fbdd5183d" data-name="&lt;Path&gt;" class="405030fc-baac-43c1-9772-fae9eb97593a" d="M113.58,60.88H73.47a.59.59,0,1,1,0-1.17h40.11a.59.59,0,1,1,0,1.17Z"/></g><g id="7fe86362-bd3c-4cac-a57c-c8cdb9467be3" data-name="&lt;Group&gt;"><path id="b94db5bb-471e-4367-806d-8dc12e3d36ad" data-name="&lt;Path&gt;" class="405030fc-baac-43c1-9772-fae9eb97593a" d="M120.42,69.08H79.32a.59.59,0,0,1,0-1.17h41.1a.59.59,0,0,1,0,1.17Z"/></g><g id="f250dc34-b37c-4d9a-a517-47da6be0d1a0" data-name="&lt;Group&gt;"><path id="6a0df66c-e710-47b2-a2be-137e9b2f380b" data-name="&lt;Path&gt;" class="405030fc-baac-43c1-9772-fae9eb97593a" d="M93.3,77.28h-14a.59.59,0,0,1,0-1.18h14a.59.59,0,1,1,0,1.18Z"/></g><g id="7f9945d9-3d52-47a1-9c55-7689a0d62e2b" data-name="&lt;Group&gt;"><path id="d800af89-9ce7-4a46-a3e4-221d5fc101ae" data-name="&lt;Path&gt;" class="405030fc-baac-43c1-9772-fae9eb97593a" d="M104.61,77.28h-7a.59.59,0,0,1,0-1.18h7a.59.59,0,0,1,0,1.18Z"/></g><g id="2209869d-997c-4401-9cb1-dddca5f9f63d" data-name="&lt;Group&gt;"><path id="0f9c3e38-0601-4f38-b025-bb0ac327282c" data-name="&lt;Path&gt;" class="405030fc-baac-43c1-9772-fae9eb97593a" d="M87,85.47H73.47a.59.59,0,1,1,0-1.17H87a.59.59,0,1,1,0,1.17Z"/></g><g id="e398af61-76ec-4ba3-9072-186703f8d90a" data-name="&lt;Group&gt;"><path id="4c9ef906-ef9b-48af-8170-b65d04c11148" data-name="&lt;Path&gt;" class="405030fc-baac-43c1-9772-fae9eb97593a" d="M96.22,93.67H73.47a.59.59,0,1,1,0-1.17H96.22a.59.59,0,0,1,0,1.17Z"/></g><g id="58a06ba2-ad4d-4a4d-8754-ffff57a9b9c7" data-name="&lt;Group&gt;"><path id="17256691-0de6-4716-bb9b-791ad0062610" data-name="&lt;Path&gt;" class="405030fc-baac-43c1-9772-fae9eb97593a" d="M88,101.86h-8.7a.58.58,0,0,1-.58-.58.59.59,0,0,1,.58-.59H88a.6.6,0,0,1,.59.59A.59.59,0,0,1,88,101.86Z"/></g><g id="a8905c80-9712-40aa-8e0a-c17e3d12c34c" data-name="&lt;Group&gt;"><g id="b5d6be9b-f7be-437c-982b-0b29fe047dc8" data-name="&lt;Group&gt;"><path id="f317c4db-093d-4e99-80e9-0d4620d4b2ae" data-name="&lt;Path&gt;" class="a81ba2ba-403d-4759-96f3-b241daf972c7" d="M100.72,101.86h-8a.59.59,0,0,1-.59-.58.6.6,0,0,1,.59-.59h8a.59.59,0,0,1,.59.59A.58.58,0,0,1,100.72,101.86Z"/></g><g id="c7be2065-576f-4eb7-8082-b7c8b0bc94bd" data-name="&lt;Group&gt;"><path id="f971e7bc-0046-4b5e-9d69-133322ef06fb" data-name="&lt;Path&gt;" class="a81ba2ba-403d-4759-96f3-b241daf972c7" d="M124.71,101.86h-8a.59.59,0,0,1-.59-.58.6.6,0,0,1,.59-.59h8a.59.59,0,0,1,.59.59A.58.58,0,0,1,124.71,101.86Z"/></g></g><g id="2f11b653-7abb-43e8-96cc-8b90adc9c361" data-name="&lt;Group&gt;"><path id="c901ec9b-4ed1-4f94-8050-8bf8596b3ad8" data-name="&lt;Path&gt;" class="405030fc-baac-43c1-9772-fae9eb97593a" d="M112,101.86h-6.78a.58.58,0,0,1-.58-.58.59.59,0,0,1,.58-.59H112a.59.59,0,0,1,.59.59A.58.58,0,0,1,112,101.86Z"/></g></g><g id="7c980727-de9d-4b89-a400-b39de63e405b" data-name="&lt;Group&gt;"><path id="d66c1a9c-70b9-4178-9806-6586cf314767" data-name="&lt;Path&gt;" class="405030fc-baac-43c1-9772-fae9eb97593a" d="M102.12,110.06H79.32a.59.59,0,0,1,0-1.17h22.8a.59.59,0,1,1,0,1.17Z"/></g><g id="53d6bdb4-0a0a-4c3d-84bb-24712a6ad28e" data-name="&lt;Group&gt;"><path id="d2aea05f-6bf3-40b9-9121-f07e15a2fac8" data-name="&lt;Path&gt;" class="a81ba2ba-403d-4759-96f3-b241daf972c7" d="M110.66,110.06h-3.91a.59.59,0,0,1,0-1.17h3.91a.59.59,0,0,1,0,1.17Z"/></g><g id="8d88a2f9-8a83-4c2c-8420-ff90740c7ea7" data-name="&lt;Group&gt;"><path id="ee681ae6-2c3a-47a0-934a-c75d38a1310e" data-name="&lt;Path&gt;" class="405030fc-baac-43c1-9772-fae9eb97593a" d="M80.26,118.26H73.47a.59.59,0,1,1,0-1.17h6.79a.59.59,0,0,1,0,1.17Z"/></g><g id="3a3c81c7-3468-476c-a45b-104bca9031ed" data-name="&lt;Group&gt;"><path id="fbc4451c-c876-458d-826a-8d60cd645438" data-name="&lt;Path&gt;" class="405030fc-baac-43c1-9772-fae9eb97593a" d="M94.85,126.45H73.47a.59.59,0,1,1,0-1.17H94.85a.59.59,0,1,1,0,1.17Z"/></g><g id="35c8a759-037a-4fef-a78d-b44cd083136b" data-name="&lt;Group&gt;"><path id="a99d6103-7b84-414b-8127-d72ddbd5999e" data-name="&lt;Path&gt;" class="405030fc-baac-43c1-9772-fae9eb97593a" d="M120.42,134.65H79.32a.59.59,0,0,1,0-1.17h41.1a.59.59,0,0,1,0,1.17Z"/></g><g id="b65debfa-789e-4721-8376-b1b92bcb0b09" data-name="&lt;Group&gt;"><path id="4c02c16b-cadc-4ce2-a9e4-3f870a31d25c" data-name="&lt;Path&gt;" class="405030fc-baac-43c1-9772-fae9eb97593a" d="M104.61,142.85H79.32a.59.59,0,0,1-.58-.59.58.58,0,0,1,.58-.58h25.29a.58.58,0,0,1,.58.58A.59.59,0,0,1,104.61,142.85Z"/></g><g id="3e6fc585-fe77-48c6-bb50-b10cb65af147" data-name="&lt;Group&gt;"><path id="b706754f-7066-472e-a7bf-a4b87d206ccc" data-name="&lt;Path&gt;" class="405030fc-baac-43c1-9772-fae9eb97593a" d="M87,151H73.47a.59.59,0,1,1,0-1.17H87A.59.59,0,1,1,87,151Z"/></g></g><g id="339651ce-158e-42bf-8570-7469e44fcf19" data-name="&lt;Group&gt;"><g id="b15c9150-f33d-4ab8-9dc0-aed81d490904" data-name="&lt;Group&gt;"><circle id="21c5130d-38cd-4e6a-924a-a8c0569ed763" data-name="&lt;Path&gt;" class="405030fc-baac-43c1-9772-fae9eb97593a" cx="62.03" cy="60.3" r="0.9"/></g><g id="86ab7e0a-385a-4227-8fa2-70db0d759f96" data-name="&lt;Group&gt;"><circle id="af969990-d2bb-4584-ac02-4d14c10ab8f2" data-name="&lt;Path&gt;" class="405030fc-baac-43c1-9772-fae9eb97593a" cx="62.03" cy="68.49" r="0.9"/></g><g id="c4ee7dec-17e9-4bbb-8d92-6f690adc4762" data-name="&lt;Group&gt;"><circle id="faf08495-ef1a-4734-ab04-b50ac5a3d88e" data-name="&lt;Path&gt;" class="405030fc-baac-43c1-9772-fae9eb97593a" cx="62.03" cy="76.69" r="0.9"/></g><g id="5e47f5f9-9fbe-4adf-b346-130beacbaea6" data-name="&lt;Group&gt;"><circle id="e33cd9b4-442e-4e3e-823d-8aa4b7281387" data-name="&lt;Path&gt;" class="405030fc-baac-43c1-9772-fae9eb97593a" cx="62.03" cy="84.89" r="0.9"/></g><g id="16b154df-f9e5-4b83-920f-e110f66c4c63" data-name="&lt;Group&gt;"><circle id="3397246e-de83-413c-9399-2aff47120af9" data-name="&lt;Path&gt;" class="405030fc-baac-43c1-9772-fae9eb97593a" cx="62.03" cy="93.08" r="0.9"/></g><g id="aec46f3a-66d2-4538-9fdf-1b1318170056" data-name="&lt;Group&gt;"><circle id="06d711a7-2117-4908-ab9f-61a759456c1a" data-name="&lt;Path&gt;" class="405030fc-baac-43c1-9772-fae9eb97593a" cx="62.03" cy="101.28" r="0.9"/></g><g id="b52accfa-7ad5-4685-8975-ab9f903ec196" data-name="&lt;Group&gt;"><circle id="69fb1a69-dd5c-4207-91d8-a9c1fc89eebc" data-name="&lt;Path&gt;" class="405030fc-baac-43c1-9772-fae9eb97593a" cx="62.03" cy="109.48" r="0.9"/></g><g id="b75f2952-720b-4a01-be07-b08b033a2518" data-name="&lt;Group&gt;"><circle id="a63f5494-1a10-4758-a787-1be67494a582" data-name="&lt;Path&gt;" class="405030fc-baac-43c1-9772-fae9eb97593a" cx="62.03" cy="117.67" r="0.9"/></g><g id="c59e1b6c-6b35-419f-b945-73ae5112600d" data-name="&lt;Group&gt;"><circle id="1360ce28-5596-475e-b62e-49b590d61f1a" data-name="&lt;Path&gt;" class="405030fc-baac-43c1-9772-fae9eb97593a" cx="62.03" cy="125.87" r="0.9"/></g><g id="1ecfd972-7be2-4559-9827-70ed545ac2e6" data-name="&lt;Group&gt;"><circle id="4847c3c8-c4c1-4ac3-bb9c-aaaf7d7ac5b9" data-name="&lt;Path&gt;" class="405030fc-baac-43c1-9772-fae9eb97593a" cx="62.03" cy="134.06" r="0.9"/></g><g id="aba3688f-3322-4525-bd00-a5d4e6fc86ed" data-name="&lt;Group&gt;"><circle id="d7801422-c2ad-4ee4-a93e-ed98c4978ece" data-name="&lt;Path&gt;" class="405030fc-baac-43c1-9772-fae9eb97593a" cx="62.03" cy="142.26" r="0.9"/></g><g id="fe6cc1ca-7bda-4153-b992-6353c097c3e6" data-name="&lt;Group&gt;"><circle id="d64a8728-d95f-4d6e-ab1e-e6b1d1265cbd" data-name="&lt;Path&gt;" class="405030fc-baac-43c1-9772-fae9eb97593a" cx="62.03" cy="150.46" r="0.9"/></g></g></g><g id="ffd0e7ab-e133-425e-9550-d15c02658cfd" data-name="&lt;Group&gt;"><circle id="df487c5c-a23b-4523-9e0a-923e2e687d1b" data-name="&lt;Path&gt;" class="a81ba2ba-403d-4759-96f3-b241daf972c7" cx="96.71" cy="101.28" r="2.34"/></g><g id="38d9b147-8cca-4617-a1b0-b0b81e7f4e10" data-name="&lt;Group&gt;"><circle id="8293ea82-4490-4393-8dab-0f83c4955490" data-name="&lt;Path&gt;" class="a81ba2ba-403d-4759-96f3-b241daf972c7" cx="120.7" cy="101.28" r="2.34"/></g><g id="ebe5f220-56eb-451b-8133-40e3efd01903" data-name="&lt;Group&gt;"><path id="0276e22e-e644-4522-89b6-3775e5209836" data-name="&lt;Compound Path&gt;" class="2aa17ec1-c2e3-4b9f-8d5a-9012e755d19e" d="M182.52,54h-4.27a.59.59,0,0,1,0-1.18h4.27a.59.59,0,1,1,0,1.18Zm-7.78,0h-4.68a.59.59,0,0,1,0-1.18h4.68a.59.59,0,0,1,0,1.18Z"/></g><g id="4e350c58-52d5-43e8-bc78-b475899296c7" data-name="&lt;Group&gt;"><path id="d70123ad-d4a6-4ef3-b44a-670602d21c4b" data-name="&lt;Compound Path&gt;" class="2aa17ec1-c2e3-4b9f-8d5a-9012e755d19e" d="M203,80h-4.28a.59.59,0,0,1,0-1.17H203A.59.59,0,0,1,203,80Zm-7.79,0H170.06a.59.59,0,1,1,0-1.17h25.17a.59.59,0,1,1,0,1.17Z"/></g><g id="d0ebda85-b746-4a6a-a7b7-fd2527918e73" data-name="&lt;Group&gt;"><path id="a7a81ba1-5b1d-40d3-b795-2782ba27ce10" data-name="&lt;Compound Path&gt;" class="2aa17ec1-c2e3-4b9f-8d5a-9012e755d19e" d="M186.53,119h-8.28a.59.59,0,0,1,0-1.17h8.28a.59.59,0,1,1,0,1.17Zm-11.79,0h-4.68a.59.59,0,1,1,0-1.17h4.68a.59.59,0,1,1,0,1.17Z"/></g><g id="6a473e1e-efe7-4e28-8fb7-b8d35b1ef89c" data-name="&lt;Group&gt;"><path id="35a8a2b5-dcd0-421d-a6d1-59ab1f9433c8" data-name="&lt;Compound Path&gt;" class="2aa17ec1-c2e3-4b9f-8d5a-9012e755d19e" d="M205.61,132h-4.27a.59.59,0,0,1,0-1.18h4.27a.59.59,0,1,1,0,1.18Zm-7.78,0a.59.59,0,1,1,.59-.59A.6.6,0,0,1,197.83,132Zm-6.1,0h-4.27a.59.59,0,0,1,0-1.18h4.27a.59.59,0,0,1,0,1.18Zm-7.79,0a.59.59,0,0,1,0-1.18.59.59,0,0,1,0,1.18Zm-6.1,0h-4.27a.59.59,0,0,1,0-1.18h4.27a.59.59,0,0,1,0,1.18Zm-7.78,0a.59.59,0,1,1,.58-.59A.59.59,0,0,1,170.06,132Z"/></g><g id="264f0130-f681-4ac6-8fcf-df77c36fcb95" data-name="&lt;Group&gt;"><path id="89aa3cbb-3e62-485b-b060-b93e04695327" data-name="&lt;Compound Path&gt;" class="2aa17ec1-c2e3-4b9f-8d5a-9012e755d19e" d="M181.07,158h-2.82a.59.59,0,0,1,0-1.17h2.82a.59.59,0,0,1,0,1.17Zm-6.33,0h-4.68a.59.59,0,1,1,0-1.17h4.68a.59.59,0,1,1,0,1.17Z"/></g><g id="70834cb3-586b-441e-91c7-898dbb3af0e3" data-name="&lt;Group&gt;"><path id="a9f43efb-8f23-475d-989c-5c6b3a99f338" data-name="&lt;Compound Path&gt;" class="2aa17ec1-c2e3-4b9f-8d5a-9012e755d19e" d="M46.51,67H36.56a.59.59,0,1,1,0-1.17h9.95a.59.59,0,1,1,0,1.17ZM33.05,67H28.78a.59.59,0,1,1,0-1.17h4.27a.59.59,0,0,1,0,1.17Z"/></g><g id="0306be93-0f32-4822-b0d8-ccbb9403978e" data-name="&lt;Group&gt;"><path id="9c99ecfc-5d70-41e6-89cc-63465396f9f4" data-name="&lt;Path&gt;" class="2aa17ec1-c2e3-4b9f-8d5a-9012e755d19e" d="M46.51,106H41.83a.59.59,0,1,1,0-1.17h4.68a.59.59,0,1,1,0,1.17Z"/></g><g id="19061203-7871-4153-a211-4d2259f468e4" data-name="&lt;Group&gt;"><path id="56e4dc6d-848f-4b80-ba3b-8d437173070f" data-name="&lt;Compound Path&gt;" class="2aa17ec1-c2e3-4b9f-8d5a-9012e755d19e" d="M46.51,119H41.83a.59.59,0,1,1,0-1.17h4.68a.59.59,0,1,1,0,1.17Zm-8.19,0H26a.59.59,0,0,1,0-1.17h12.3a.59.59,0,0,1,0,1.17Zm-18.4,0H19a.59.59,0,1,1,0-1.17h.89a.59.59,0,1,1,0,1.17Z"/></g><g id="cc8e6ba7-7450-4d47-ace6-beaebbc5b17f" data-name="&lt;Group&gt;"><path id="8d2ec62a-deec-406c-be12-753f616e2444" data-name="&lt;Path&gt;" class="2aa17ec1-c2e3-4b9f-8d5a-9012e755d19e" d="M46.51,145H41.83a.59.59,0,0,1-.59-.58.6.6,0,0,1,.59-.59h4.68a.59.59,0,0,1,.59.59A.58.58,0,0,1,46.51,145Z"/></g><g id="fbb82b87-1d5a-4324-84c7-922d24d3cf86" data-name="&lt;Group&gt;"><path id="64c83c29-a7c8-42ee-8d42-263e0da3ebf4" data-name="&lt;Compound Path&gt;" class="2aa17ec1-c2e3-4b9f-8d5a-9012e755d19e" d="M46.51,158H41.83a.59.59,0,1,1,0-1.17h4.68a.59.59,0,1,1,0,1.17Zm-8.19,0H34.05a.59.59,0,1,1,0-1.17h4.27a.59.59,0,0,1,0,1.17Z"/></g></g></g></g></svg>