<svg xmlns="http://www.w3.org/2000/svg" viewBox="0 0 216.79 227.03"><defs><style>.bdf76dbb-9aaa-48de-acd1-6d373c145108{fill:#daedfa;}.f4017089-e3c0-4c24-acd4-28f7aa898c6b{fill:#fff;}.fea6504d-8c7c-4c95-8f3d-9901f24db729{fill:blue;}.b65d9146-d8db-4fd6-b83d-165d9ecd0dd9{fill:#cfe7fa;}.\33 1281602-0d49-4acf-bb5e-7a99185e27c5{fill:#beefc9;}.c4cec8b1-936a-411c-8a90-53c14c44e0be{fill:#80df96;}.\38 f93fd0e-598b-4bce-afa9-5655b5681555{fill:#acd3f7;}.\33 a127c6f-a230-42d1-84d7-6cd368cc9cf8{fill:#535b7a;}.\37 fa7502d-b47e-4b17-a712-7f3a12bd63be{fill:#90caf4;}</style></defs><title>creating</title><g id="edc3746d-e7cc-4bf5-9816-478325e85958" data-name="Layer 2"><g id="e9c8cca7-0fda-464a-a4d7-14ef51bcccdd" data-name="Layer 1"><g id="065a221f-828d-46ed-99bd-e82c3c4385fa" data-name="&lt;Group&gt;"><g id="3fbed1f9-69c6-479b-a96c-1eabf9767a40" data-name="&lt;Group&gt;"><circle id="6096db8f-f2ff-44ea-adfc-bd159e050894" data-name="&lt;Path&gt;" class="bdf76dbb-9aaa-48de-acd1-6d373c145108" cx="108.4" cy="108.4" r="108.4" transform="translate(-44.9 108.4) rotate(-45)"/></g><g id="1db37005-759d-4f62-b506-6818fe193d41" data-name="&lt;Group&gt;"><path id="8baa3dff-a5ca-4567-b7cd-ffdf48ddc8f8" data-name="&lt;Path&gt;" class="f4017089-e3c0-4c24-acd4-28f7aa898c6b" d="M168.17,223.35V58.28H48.62V223.35a3.09,3.09,0,0,0,3.1,3.09H165.07A3.09,3.09,0,0,0,168.17,223.35Z"/><path id="09d24ab6-86dc-4288-b260-a55cd2b00e9c" data-name="&lt;Compound Path&gt;" class="fea6504d-8c7c-4c95-8f3d-9901f24db729" d="M165.07,227H51.72A3.68,3.68,0,0,1,48,223.35V57.69H168.75V223.35A3.68,3.68,0,0,1,165.07,227ZM49.21,58.86V223.35a2.51,2.51,0,0,0,2.51,2.51H165.07a2.52,2.52,0,0,0,2.52-2.51V58.86Z"/></g><g id="5dc4b1e1-5415-48b0-a8d5-78c45d760589" data-name="&lt;Group&gt;"><path id="11a5cacc-afef-40c9-b6bd-07ca7f8882b7" data-name="&lt;Rectangle&gt;" class="fea6504d-8c7c-4c95-8f3d-9901f24db729" d="M51.29,49H165.51a2.66,2.66,0,0,1,2.66,2.66v6.63a0,0,0,0,1,0,0H48.62a0,0,0,0,1,0,0V51.65A2.66,2.66,0,0,1,51.29,49Z"/><path id="fcbc98ec-46c3-42c5-9d5a-07bfbbfffbfe" data-name="&lt;Compound Path&gt;" class="fea6504d-8c7c-4c95-8f3d-9901f24db729" d="M168.75,58.86H48V52.08a3.68,3.68,0,0,1,3.68-3.68H165.07a3.68,3.68,0,0,1,3.68,3.68ZM49.21,57.69H167.59V52.08a2.52,2.52,0,0,0-2.52-2.51H51.72a2.51,2.51,0,0,0-2.51,2.51Z"/></g><g id="84e313f0-68b0-4dad-ba56-18205e2dea0d" data-name="&lt;Group&gt;"><path id="eff7ff70-0797-4e6e-b72f-cd164a9ccfa7" data-name="&lt;Path&gt;" class="f4017089-e3c0-4c24-acd4-28f7aa898c6b" d="M57.91,53.63a1.55,1.55,0,1,1-1.54-1.55A1.54,1.54,0,0,1,57.91,53.63Z"/></g><g id="7e7c435d-784b-4796-8071-edb800d7d6ca" data-name="&lt;Group&gt;"><path id="d335eff7-d5b8-47b8-b985-2db2a3fb7d42" data-name="&lt;Path&gt;" class="f4017089-e3c0-4c24-acd4-28f7aa898c6b" d="M62.64,53.63a1.55,1.55,0,1,1-1.55-1.55A1.55,1.55,0,0,1,62.64,53.63Z"/></g><g id="adfe2afc-3c49-45e7-9ebd-c9cbff7b95f9" data-name="&lt;Group&gt;"><path id="af9a506d-19fa-424d-a403-bc4dfb88aff4" data-name="&lt;Path&gt;" class="f4017089-e3c0-4c24-acd4-28f7aa898c6b" d="M67.36,53.63a1.55,1.55,0,1,1-1.55-1.55A1.54,1.54,0,0,1,67.36,53.63Z"/></g><g id="4d78f516-4a7d-45cd-a571-67b500a6d1f8" data-name="&lt;Group&gt;"><rect id="dacf0286-47f5-453b-abcc-a6003832143b" data-name="&lt;Rectangle&gt;" class="b65d9146-d8db-4fd6-b83d-165d9ecd0dd9" x="54.82" y="64.47" width="107.16" height="13.01"/><path id="575fc2e2-fd12-43f3-a7df-987056a54a22" data-name="&lt;Compound Path&gt;" class="fea6504d-8c7c-4c95-8f3d-9901f24db729" d="M162,78.06H54.82a.59.59,0,0,1-.59-.58v-13a.59.59,0,0,1,.59-.58H162a.58.58,0,0,1,.59.58v13A.58.58,0,0,1,162,78.06ZM55.4,76.89h106V65.05H55.4Z"/></g><g id="cf0ca83e-17a9-42f7-b4e6-5f313a42e90f" data-name="&lt;Group&gt;"><rect id="8a70c73d-952a-4fcc-bffa-dc5f8f74d7ba" data-name="&lt;Rectangle&gt;" class="b65d9146-d8db-4fd6-b83d-165d9ecd0dd9" x="54.82" y="120.84" width="107.16" height="33.47"/><path id="cfad7a2d-6e9a-4c43-b3d9-c0578b3824fd" data-name="&lt;Compound Path&gt;" class="fea6504d-8c7c-4c95-8f3d-9901f24db729" d="M162,154.89H54.82a.59.59,0,0,1-.59-.59V120.84a.59.59,0,0,1,.59-.59H162a.58.58,0,0,1,.59.59V154.3A.58.58,0,0,1,162,154.89ZM55.4,153.72h106v-32.3H55.4Z"/></g><g id="8f2ff8dc-b5a6-415a-b79b-bb80dc3938a8" data-name="&lt;Group&gt;"><rect id="ccede6f5-a075-44bf-b10f-da762c3043e0" data-name="&lt;Rectangle&gt;" class="b65d9146-d8db-4fd6-b83d-165d9ecd0dd9" x="54.82" y="160.5" width="107.16" height="53.67"/><path id="4d63f9bb-add2-4bc3-a4fc-c8dc8a0bf03f" data-name="&lt;Compound Path&gt;" class="fea6504d-8c7c-4c95-8f3d-9901f24db729" d="M162,214.76H54.82a.59.59,0,0,1-.59-.59V160.5a.59.59,0,0,1,.59-.58H162a.58.58,0,0,1,.59.58v53.67A.58.58,0,0,1,162,214.76ZM55.4,213.59h106V161.08H55.4Z"/></g><g id="a9677a6a-5f9c-4786-81ba-3a68e06700df" data-name="&lt;Group&gt;"><rect id="d93193df-4a61-4e45-8748-636322ab909a" data-name="&lt;Rectangle&gt;" class="31281602-0d49-4acf-bb5e-7a99185e27c5" x="54.82" y="83.67" width="62.87" height="30.97"/><path id="556e1642-2fa4-41f5-84fe-87828b42c7a2" data-name="&lt;Compound Path&gt;" class="c4cec8b1-936a-411c-8a90-53c14c44e0be" d="M117.69,115.23H54.82a.6.6,0,0,1-.59-.59v-31a.59.59,0,0,1,.59-.58h62.87a.58.58,0,0,1,.58.58v31A.59.59,0,0,1,117.69,115.23ZM55.4,114.06h61.7V84.26H55.4Z"/></g><g id="fd6d150c-6d33-46ee-a26e-93a9cdc6e55b" data-name="&lt;Group&gt;"><rect id="068a2124-7487-4fcf-adf4-f6d70729fb03" data-name="&lt;Rectangle&gt;" class="b65d9146-d8db-4fd6-b83d-165d9ecd0dd9" x="123.88" y="83.67" width="38.09" height="30.97"/><path id="72330529-9cf7-4744-826b-e55180901ac9" data-name="&lt;Compound Path&gt;" class="fea6504d-8c7c-4c95-8f3d-9901f24db729" d="M162,115.23H123.88a.59.59,0,0,1-.58-.59v-31a.58.58,0,0,1,.58-.58H162a.58.58,0,0,1,.59.58v31A.59.59,0,0,1,162,115.23Zm-37.5-1.17h36.92V84.26H124.47Z"/></g><g id="f1d60fda-0ba2-4aeb-a1d3-94784d6fa262" data-name="&lt;Group&gt;"><g id="0d4b2ff7-0b76-4d78-aca9-1e6bf6523a7f" data-name="&lt;Group&gt;"><g id="697b076f-d3fb-49e9-852e-9ea8024e10b4" data-name="&lt;Group&gt;"><rect id="851aa2c6-1d76-4c52-af72-732617b1c365" data-name="&lt;Rectangle&gt;" class="8f93fd0e-598b-4bce-afa9-5655b5681555" x="24.03" y="84.24" width="15.49" height="59.77"/></g><g id="55343b12-8484-4e83-8325-fcc978b98118" data-name="&lt;Group&gt;"><rect id="0949e1c0-eb7a-450f-a37d-ac16708dc5f7" data-name="&lt;Rectangle&gt;" class="b65d9146-d8db-4fd6-b83d-165d9ecd0dd9" x="28.72" y="84.24" width="6.1" height="59.77"/></g><g id="cf60642c-424f-4ded-b4d9-04961c5d69fb" data-name="&lt;Group&gt;"><polygon id="13456e24-34ec-4abc-98ee-a693e9849396" data-name="&lt;Path&gt;" class="f4017089-e3c0-4c24-acd4-28f7aa898c6b" points="24.02 84.24 31.77 67.21 39.51 84.24 24.02 84.24"/></g><g id="fc901ea2-5e9e-4682-84c0-dd91a832116f" data-name="&lt;Group&gt;"><polygon id="10ab2060-ef6d-4834-8638-f20ebe197a46" data-name="&lt;Path&gt;" class="fea6504d-8c7c-4c95-8f3d-9901f24db729" points="31.77 67.21 28.72 73.92 34.82 73.92 31.77 67.21"/></g><g id="34087800-3fea-4e6a-9412-14446836cc9c" data-name="&lt;Group&gt;"><rect id="be42f8af-9547-4941-91e9-071f08944ce8" data-name="&lt;Rectangle&gt;" class="f4017089-e3c0-4c24-acd4-28f7aa898c6b" x="24.03" y="144.01" width="15.49" height="4.7"/></g><g id="1748f538-751e-4a58-90d9-96e7ca42da59" data-name="&lt;Group&gt;"><path id="e7092a43-2884-48ba-831c-e3a54c0a6b10" data-name="&lt;Rectangle&gt;" class="8f93fd0e-598b-4bce-afa9-5655b5681555" d="M24,148.71H39.51a0,0,0,0,1,0,0v7.2a2.66,2.66,0,0,1-2.66,2.66H26.69A2.66,2.66,0,0,1,24,155.91v-7.2A0,0,0,0,1,24,148.71Z"/></g></g><g id="b1ebc5d5-34a4-401d-b72d-7340af678d8f" data-name="&lt;Group&gt;"><g id="5bf3c299-fd4d-4097-a1f4-e54865beb109" data-name="&lt;Group&gt;"><path id="91a22c39-5398-46cf-9a90-e60ec233af14" data-name="&lt;Compound Path&gt;" class="fea6504d-8c7c-4c95-8f3d-9901f24db729" d="M31.77,67.21l3.05,6.71h0l4.69,10.32v71.23a3.1,3.1,0,0,1-3.1,3.1H27.12a3.09,3.09,0,0,1-3.09-3.1V84.24l7.74-17m0-1.17a1.16,1.16,0,0,0-1.06.68L23,83.76a1.12,1.12,0,0,0-.1.48v71.23a4.27,4.27,0,0,0,4.26,4.27h9.29a4.27,4.27,0,0,0,4.27-4.27V84.24a1.13,1.13,0,0,0-.11-.48L35.88,73.43l-3.05-6.71A1.17,1.17,0,0,0,31.77,66Z"/></g></g></g><g id="e6c10e8d-5447-46f8-9000-59b0850649f0" data-name="&lt;Group&gt;"><g id="3666b475-aaff-437a-81b1-0b9fee69a087" data-name="&lt;Group&gt;"><rect id="0c4b1634-4add-4df1-9d75-100f51dae5b2" data-name="&lt;Rectangle&gt;" class="f4017089-e3c0-4c24-acd4-28f7aa898c6b" x="177.28" y="67.21" width="15.49" height="91.36" transform="translate(370.05 225.77) rotate(180)"/></g><g id="deed3411-0e40-453f-bc07-3071c8b9dcc1" data-name="&lt;Group&gt;"><path id="21c3d224-3e52-4012-8984-c6cf7d2984b1" data-name="&lt;Path&gt;" class="fea6504d-8c7c-4c95-8f3d-9901f24db729" d="M183.58,76.81h-6.3V73.92h6.3A1.43,1.43,0,0,1,185,75.36h0A1.44,1.44,0,0,1,183.58,76.81Z"/></g><g id="12b01cd0-ec01-4419-968a-4fb2bffcc462" data-name="&lt;Group&gt;"><path id="d385d72c-f4e6-48f0-b7c7-a297f877a0c7" data-name="&lt;Path&gt;" class="fea6504d-8c7c-4c95-8f3d-9901f24db729" d="M181.2,87.13h-3.92V84.24h3.92a1.45,1.45,0,0,1,1.45,1.44h0A1.45,1.45,0,0,1,181.2,87.13Z"/></g><g id="25342ff0-d0ba-411b-97c4-74f09ca5c489" data-name="&lt;Group&gt;"><path id="0571ba5c-140f-47a9-b3cd-9d71a2436fb9" data-name="&lt;Path&gt;" class="fea6504d-8c7c-4c95-8f3d-9901f24db729" d="M183.58,97.45h-6.3V94.56h6.3A1.44,1.44,0,0,1,185,96h0A1.43,1.43,0,0,1,183.58,97.45Z"/></g><g id="677b43ca-de68-45bb-959b-da98ca6ce7f4" data-name="&lt;Group&gt;"><path id="6f44be49-4768-428c-8bbb-4c6be30d5b0e" data-name="&lt;Path&gt;" class="fea6504d-8c7c-4c95-8f3d-9901f24db729" d="M181.2,107.78h-3.92v-2.89h3.92a1.44,1.44,0,0,1,1.45,1.44h0A1.45,1.45,0,0,1,181.2,107.78Z"/></g><g id="72c6aec7-2b0d-4585-aabb-3127e18de5d8" data-name="&lt;Group&gt;"><path id="b750b676-46fb-47e4-a0bd-6c992836d15f" data-name="&lt;Path&gt;" class="fea6504d-8c7c-4c95-8f3d-9901f24db729" d="M183.58,118.1h-6.3v-2.89h6.3a1.44,1.44,0,0,1,1.44,1.45h0A1.44,1.44,0,0,1,183.58,118.1Z"/></g><g id="14ea750e-8e7f-4f7a-bc66-bb73740700d0" data-name="&lt;Group&gt;"><path id="2064a236-f9b9-4916-b764-5b3f2baf8bb8" data-name="&lt;Path&gt;" class="fea6504d-8c7c-4c95-8f3d-9901f24db729" d="M181.2,128.42h-3.92v-2.89h3.92a1.45,1.45,0,0,1,1.45,1.45h0A1.44,1.44,0,0,1,181.2,128.42Z"/></g><g id="00e0b0e7-ec98-4ad1-9283-c86eb828da16" data-name="&lt;Group&gt;"><path id="8f237723-0fc0-4776-af73-e1a5ddb7d9b0" data-name="&lt;Path&gt;" class="fea6504d-8c7c-4c95-8f3d-9901f24db729" d="M183.58,138.75h-6.3v-2.89h6.3A1.43,1.43,0,0,1,185,137.3h0A1.44,1.44,0,0,1,183.58,138.75Z"/></g><g id="10ebeb23-9a43-4c92-b5fc-837d8b6a67ac" data-name="&lt;Group&gt;"><path id="0d8824b2-35aa-4d8f-8a09-0ebf6f52d791" data-name="&lt;Path&gt;" class="fea6504d-8c7c-4c95-8f3d-9901f24db729" d="M181.2,149.07h-3.92v-2.89h3.92a1.45,1.45,0,0,1,1.45,1.45h0A1.45,1.45,0,0,1,181.2,149.07Z"/></g><g id="91668179-9eb3-4769-bc0b-cc60f66b4336" data-name="&lt;Group&gt;"><g id="51a15701-950b-4e66-82cb-6fd6e2a348e9" data-name="&lt;Group&gt;"><path id="82f21d94-19ed-4ac8-8856-828b3f5e4d49" data-name="&lt;Compound Path&gt;" class="fea6504d-8c7c-4c95-8f3d-9901f24db729" d="M192.77,67.21v91.36H177.28V67.21h15.49m0-1.17H177.28a1.17,1.17,0,0,0-1.17,1.17v91.36a1.18,1.18,0,0,0,1.17,1.17h15.49a1.17,1.17,0,0,0,1.16-1.17V67.21A1.16,1.16,0,0,0,192.77,66Z"/></g></g></g><g id="c4fa55e5-8de2-405b-ab02-89cd2fde4465" data-name="&lt;Group&gt;"><g id="fc9f8f26-fab8-431e-9919-8faa5b2d3ef3" data-name="&lt;Group&gt;"><g id="6c2c5845-b4f0-4f82-935d-0449276fb2cd" data-name="&lt;Group&gt;"><circle id="33001fbd-be67-491a-a540-5801c33acf72" data-name="&lt;Path&gt;" class="3a127c6f-a230-42d1-84d7-6cd368cc9cf8" cx="92.19" cy="134" r="2.81"/></g><g id="cd5af6be-27e0-4d2d-8dad-68cb9b7086e6" data-name="&lt;Group&gt;"><circle id="7962c219-7775-4e04-b640-d7fbd3eb076f" data-name="&lt;Path&gt;" class="3a127c6f-a230-42d1-84d7-6cd368cc9cf8" cx="124.6" cy="134" r="2.81"/></g></g><g id="f865244c-1aa3-4d86-8890-1ab88c588bf8" data-name="&lt;Group&gt;"><path id="85649b6c-3f61-42cb-a263-5cc8a298ce25" data-name="&lt;Path&gt;" class="3a127c6f-a230-42d1-84d7-6cd368cc9cf8" d="M108.4,144.83a5,5,0,0,1-5-5,.88.88,0,1,1,1.75,0,3.26,3.26,0,0,0,6.51,0,.88.88,0,1,1,1.75,0A5,5,0,0,1,108.4,144.83Z"/></g><g id="1b05eaa0-f64a-44b4-8ba4-8f482db0cf4e" data-name="&lt;Group&gt;"><g id="759272d0-ff22-4838-a93c-0a7cab59d8ed" data-name="&lt;Group&gt;"><g id="57ed782f-67a6-499f-b2b4-e7bac418e9f1" data-name="&lt;Group&gt;"><g id="e1dbeceb-e4e3-46e5-a162-50e694e7ca71" data-name="&lt;Group&gt;"><path id="88dcdcf5-8a10-4fdf-83b8-c47d1b80bc74" data-name="&lt;Path&gt;" class="7fa7502d-b47e-4b17-a712-7f3a12bd63be" d="M126.51,139.06a.92.92,0,1,1-.92-.92A.92.92,0,0,1,126.51,139.06Z"/></g><g id="6247ea8f-e556-4860-b387-ee88882fcdde" data-name="&lt;Group&gt;"><path id="efa12ced-cecf-4e4f-8da4-d56544dcf46a" data-name="&lt;Path&gt;" class="7fa7502d-b47e-4b17-a712-7f3a12bd63be" d="M130,139.06a.92.92,0,1,1-.92-.92A.92.92,0,0,1,130,139.06Z"/></g></g><g id="9de28298-9004-4b93-bf97-309298eabda5" data-name="&lt;Group&gt;"><path id="ab617f8a-9db8-41dc-acad-3b6556d1dbc6" data-name="&lt;Path&gt;" class="7fa7502d-b47e-4b17-a712-7f3a12bd63be" d="M128.26,142.28a.92.92,0,1,1-.92-.92A.92.92,0,0,1,128.26,142.28Z"/></g></g><g id="2e5581cf-1cc5-4e6d-8d61-5783812d47dd" data-name="&lt;Group&gt;"><g id="90d5dd33-ddd4-4ea6-bae3-3863bb86641c" data-name="&lt;Group&gt;"><g id="eb3d16de-c418-466a-b592-34cce9a8468b" data-name="&lt;Group&gt;"><path id="8b8d652e-ebc6-407a-8907-f7de9e2d1607" data-name="&lt;Path&gt;" class="7fa7502d-b47e-4b17-a712-7f3a12bd63be" d="M88.61,139.06a.92.92,0,0,1-1.84,0,.92.92,0,0,1,1.84,0Z"/></g><g id="c9926b2e-3e2a-4432-86b7-c577923e45ef" data-name="&lt;Group&gt;"><path id="df4e6487-e59d-44ed-93e2-29ca4f95234b" data-name="&lt;Path&gt;" class="7fa7502d-b47e-4b17-a712-7f3a12bd63be" d="M92.13,139.06a.92.92,0,1,1-.92-.92A.92.92,0,0,1,92.13,139.06Z"/></g></g><g id="4c23f599-c9e8-4811-a34c-114a20a42f54" data-name="&lt;Group&gt;"><path id="0ff0e3b0-0da9-4ed9-ab85-735a4af14843" data-name="&lt;Path&gt;" class="7fa7502d-b47e-4b17-a712-7f3a12bd63be" d="M90.37,142.28a.92.92,0,1,1-.92-.92A.92.92,0,0,1,90.37,142.28Z"/></g></g></g></g><g id="7aa8c497-3490-427d-a3b1-fca54c1ed009" data-name="&lt;Group&gt;"><g id="304bf00e-b5e9-4108-923f-a4c29ca40f75" data-name="&lt;Group&gt;"><path id="4b860b4f-0708-487f-abda-0e559e53f9d8" data-name="&lt;Path&gt;" class="fea6504d-8c7c-4c95-8f3d-9901f24db729" d="M140.5,169.14H62.64a.59.59,0,0,1-.59-.58.6.6,0,0,1,.59-.59H140.5a.59.59,0,0,1,.59.59A.58.58,0,0,1,140.5,169.14Z"/></g><g id="8f80fd4c-0773-43e9-8be1-4cd2ed5d13ee" data-name="&lt;Group&gt;"><path id="4c6927ce-c421-4722-bfee-54a76d82db81" data-name="&lt;Path&gt;" class="fea6504d-8c7c-4c95-8f3d-9901f24db729" d="M125.59,177.31H62.64a.58.58,0,1,1,0-1.16h63a.58.58,0,1,1,0,1.16Z"/></g><g id="0b082911-a2da-47d8-b3ab-ecf8aed023fb" data-name="&lt;Group&gt;"><path id="2a9d6566-86a3-476d-9464-1d169c601c93" data-name="&lt;Path&gt;" class="fea6504d-8c7c-4c95-8f3d-9901f24db729" d="M135.54,185.49H62.64a.59.59,0,1,1,0-1.17h72.9a.59.59,0,1,1,0,1.17Z"/></g><g id="e7234324-f90c-4da4-a03d-607664b8c7c0" data-name="&lt;Group&gt;"><path id="0e8f3f44-e639-4fc6-9a70-49dbfe096d13" data-name="&lt;Path&gt;" class="fea6504d-8c7c-4c95-8f3d-9901f24db729" d="M125.59,193.66H62.64a.59.59,0,1,1,0-1.17h63a.59.59,0,0,1,0,1.17Z"/></g><g id="237bf0ed-5303-4d15-9003-41dee7fef483" data-name="&lt;Group&gt;"><path id="2add0cf6-1a19-45d6-b9c7-ce032a8796e6" data-name="&lt;Path&gt;" class="fea6504d-8c7c-4c95-8f3d-9901f24db729" d="M82.32,206.11H64.58a2.53,2.53,0,0,1-2.53-2.53h0a2.54,2.54,0,0,1,2.53-2.53H82.32a2.54,2.54,0,0,1,2.53,2.53h0A2.53,2.53,0,0,1,82.32,206.11Z"/></g></g></g></g></g></svg>