<svg xmlns="http://www.w3.org/2000/svg" viewBox="0 0 40.48 40.48"><defs><style>.\35 dd4df32-730d-41de-98b0-a070487cca11{fill:blue;}</style></defs><title>euro</title><g id="4a6b79d9-2dff-46a3-92cd-50c713ffa3f3" data-name="Layer 2"><g id="cbaa2ec7-4f7f-442e-88b4-f492a328231d" data-name="Layer 1"><path class="5dd4df32-730d-41de-98b0-a070487cca11" d="M20.24,0A20.24,20.24,0,1,0,40.48,20.24,20.24,20.24,0,0,0,20.24,0Zm4.08,17L24,19H18.77v1.93h5l-.29,1.93H18.77v.52c0,1.78.6,2.53,3.18,2.53a22.47,22.47,0,0,0,3.74-.35l.39,2.61a18.26,18.26,0,0,1-4.25.47c-4.61,0-6.59-1.65-6.59-4.71V22.81h-2V20.88h2V19h-2V17h2V16.6c0-3.06,2-4.72,6.59-4.72a18.23,18.23,0,0,1,4.25.48L25.7,15A22.56,22.56,0,0,0,22,14.62c-2.59,0-3.19.89-3.19,2.33V17Z"/></g></g></svg>