<svg xmlns="http://www.w3.org/2000/svg" viewBox="0 0 40.48 40.48"><defs><style>.cd3bc0d6-b8fa-4592-aa48-b3bf0dc009a5{fill:blue;}</style></defs><title>fingerprint</title><g id="8aaf1a4c-2bf1-4b41-ab86-55a60bc29650" data-name="Layer 2"><g id="9b982f09-5be9-4e7c-92ee-6c704d4709b9" data-name="Layer 1"><path class="cd3bc0d6-b8fa-4592-aa48-b3bf0dc009a5" d="M20.24,0A20.24,20.24,0,1,0,40.48,20.24,20.24,20.24,0,0,0,20.24,0ZM14.56,12.18h0l.07-.06a10,10,0,0,1,5.6-1.33,10.16,10.16,0,0,1,5.54,1.29.59.59,0,0,1-.24,1.13.55.55,0,0,1-.35-.12h0S23.65,12,20.24,12s-4.93,1.13-4.94,1.14h0a.55.55,0,0,1-.34.11.59.59,0,0,1-.6-.59A.61.61,0,0,1,14.56,12.18Zm4,17.09a.6.6,0,0,1-.4.15.62.62,0,0,1-.44-.18,9.56,9.56,0,0,1-2.57-5.41h0A6.33,6.33,0,0,1,16.42,19a4.9,4.9,0,0,1,3.82-1.54,4.74,4.74,0,0,1,4.35,2.6,7.18,7.18,0,0,1,.82,2.51.6.6,0,0,1-1.19.12,6,6,0,0,0-.69-2.1,3.57,3.57,0,0,0-3.29-1.95,3.73,3.73,0,0,0-2.93,1.14,5.22,5.22,0,0,0-1,3.89,8.29,8.29,0,0,0,2.27,4.76A.6.6,0,0,1,18.51,29.27Zm7.11-1.59a8.21,8.21,0,0,1-.84.05,4.89,4.89,0,0,1-3.21-1.06,5.91,5.91,0,0,1-1.93-3.8.6.6,0,1,1,1.19-.09,4.73,4.73,0,0,0,1.51,3,4.1,4.1,0,0,0,3.14.74.59.59,0,1,1,.14,1.17Zm1.43-3.13a2.55,2.55,0,0,1-2.2,1.09c-2.25-.12-2.66-1.71-3-2.87S21.4,21,20.24,21a1.57,1.57,0,0,0-1.36.54,2.9,2.9,0,0,0-.37,1.86,5.87,5.87,0,0,0,.2,1.17,6.75,6.75,0,0,0,4.19,4,.58.58,0,0,1,.43.71.6.6,0,0,1-.58.44H22.6c-3.61-.91-5-4.57-5-4.72v0c0-.11-.75-2.61.36-4.08a2.74,2.74,0,0,1,2.31-1,2.47,2.47,0,0,1,2.12.92,4.54,4.54,0,0,1,.69,1.74c.32,1.25.55,1.91,1.87,2a1.35,1.35,0,0,0,1.17-.61,3.52,3.52,0,0,0,.24-3.22,6.73,6.73,0,0,0-6.09-4.26,6.18,6.18,0,0,0-4,1.41,6.49,6.49,0,0,0-2,2.94c-.65,2.06.2,5.3.21,5.33a.59.59,0,0,1-1.15.3c0-.15-1-3.6-.2-6A7.5,7.5,0,0,1,25,16.94a8.22,8.22,0,0,1,2.4,3.27A4.66,4.66,0,0,1,27.05,24.55Zm1-6.54a.61.61,0,0,1-.83-.16,8,8,0,0,0-7-3.68,7.71,7.71,0,0,0-7,3.65.59.59,0,0,1-.52.29.56.56,0,0,1-.3-.08.58.58,0,0,1-.21-.8,8.89,8.89,0,0,1,8-4.23,9.44,9.44,0,0,1,5.63,1.71,9.53,9.53,0,0,1,2.37,2.48A.59.59,0,0,1,28.08,18Z"/></g></g></svg>