<svg xmlns="http://www.w3.org/2000/svg" xmlns:xlink="http://www.w3.org/1999/xlink" viewBox="0 0 217.41 219.98"><defs><style>.a0e8e041-1dc7-4e36-97ad-b5cf6708c581{fill:none;}.\38 f755a42-eca6-4acd-8b1f-f1b411555224{fill:#daedfa;}.\30 2467649-9f3a-42d9-840a-9086dca4f458{opacity:0.5;}.a64bdc21-caf7-4b9d-b576-abb0cfc4ecc1{fill:#acd3f7;}.\35 2f8f411-2678-4cdf-a9b2-823b4688f996{clip-path:url(#263d7a9d-c667-49d2-90f1-8577baa06344);}.\34 78fbe7e-e061-4b58-86d1-f6c345c934e6{fill:blue;}.\31 0591934-038e-42fc-b293-00a561c2cd2b{fill:#beefc9;}.\31 a11265d-9bd7-424e-980c-594ab64522bf{fill:#80df96;}.b133e670-cfc4-4573-9ca1-0392fdec4fb3{fill:#cfe7fa;}.\35 993f897-6d50-41bd-a674-d76c3ac04fc7{fill:#fff;}.\37 5318a8d-4543-475c-b4da-ee96ab61c020{fill:#535b7a;}.af3d176d-bc17-4fdd-adbd-ee05e1c80961{fill:#90caf4;}</style><clipPath id="263d7a9d-c667-49d2-90f1-8577baa06344"><circle id="32ef9cdc-aef6-4d5b-b7e0-fe54a647a3e8" data-name="&lt;Clipping Path&gt;" class="a0e8e041-1dc7-4e36-97ad-b5cf6708c581" cx="108.71" cy="108.71" r="108.71" transform="translate(-45.03 108.71) rotate(-45)"/></clipPath></defs><title>ideas</title><g id="7066dda1-8da9-45aa-9d48-d3a5234a6ae0" data-name="Layer 2"><g id="65c46c45-2c43-4a52-b742-e6a18c021b96" data-name="Layer 1"><g id="43c4a543-2fae-4120-b27b-4bb2d889eaaf" data-name="&lt;Group&gt;"><g id="55a044b9-cd25-4ee2-9664-94bdd3d5067c" data-name="&lt;Group&gt;"><circle id="67796aee-72d1-4d76-94da-31d0dc872c0b" data-name="&lt;Path&gt;" class="8f755a42-eca6-4acd-8b1f-f1b411555224" cx="108.71" cy="108.71" r="108.71" transform="translate(-45.03 108.71) rotate(-45)"/></g><g id="43e0b38b-7c1a-4d39-8846-225fdd7e94fe" data-name="&lt;Group&gt;" class="02467649-9f3a-42d9-840a-9086dca4f458"><path id="4a03504d-981b-435e-9b55-bf3fdc965f50" data-name="&lt;Path&gt;" class="a64bdc21-caf7-4b9d-b576-abb0cfc4ecc1" d="M128.32,68.91l1.33,2.68a21.86,21.86,0,0,0,16.47,12l3,.43c17.94,2.6,25.1,24.65,12.12,37.31l-2.14,2.09a21.84,21.84,0,0,0-6.29,19.36l.5,2.95a21.87,21.87,0,0,1-31.74,23.06l-2.64-1.39a21.88,21.88,0,0,0-20.36,0l-2.65,1.39A21.87,21.87,0,0,1,64.14,145.7l.5-2.95a21.84,21.84,0,0,0-6.29-19.36l-2.14-2.09c-13-12.66-5.82-34.71,12.12-37.31l3-.43a21.89,21.89,0,0,0,16.48-12l1.32-2.68A21.87,21.87,0,0,1,128.32,68.91Z"/></g><g id="3ccc8748-7e48-4181-87bc-e51f754398bd" data-name="&lt;Clip Group&gt;"><g class="52f8f411-2678-4cdf-a9b2-823b4688f996"><g id="e65220c0-6102-4f53-870a-ef46d6678f89" data-name="&lt;Group&gt;"><path id="e03421c4-c82c-467e-b23a-ecf42a07a1a4" data-name="&lt;Path&gt;" class="478fbe7e-e061-4b58-86d1-f6c345c934e6" d="M117.85,220a9.74,9.74,0,0,1-9.73-9.73V183.2h1.17v27.05a8.57,8.57,0,0,0,8.56,8.56Z"/></g></g></g><g id="52cac287-ed08-4b43-92ca-8c43935c4536" data-name="&lt;Group&gt;"><path id="7ceb1209-fb56-4cee-b66e-6be5dc2d32bf" data-name="&lt;Path&gt;" class="10591934-038e-42fc-b293-00a561c2cd2b" d="M139.78,38.59a3.41,3.41,0,1,1-3.41-3.41A3.41,3.41,0,0,1,139.78,38.59Z"/><path id="21cbfbd8-60ae-45b5-b976-5b2296fc7620" data-name="&lt;Compound Path&gt;" class="1a11265d-9bd7-424e-980c-594ab64522bf" d="M136.37,42.59a4,4,0,1,1,4-4A4,4,0,0,1,136.37,42.59Zm0-6.82a2.82,2.82,0,1,0,2.82,2.82A2.83,2.83,0,0,0,136.37,35.77Z"/></g><g id="298900ed-ff1b-4ded-960e-db2424209a0d" data-name="&lt;Group&gt;"><path id="f2b609c5-06bd-4aaa-a8a9-c3dc89418e5a" data-name="&lt;Path&gt;" class="b133e670-cfc4-4573-9ca1-0392fdec4fb3" d="M47.81,139.9a3.41,3.41,0,1,1-3.41-3.41A3.41,3.41,0,0,1,47.81,139.9Z"/><path id="8c99031e-b266-497f-aa99-29033abadaee" data-name="&lt;Compound Path&gt;" class="478fbe7e-e061-4b58-86d1-f6c345c934e6" d="M44.4,143.89a4,4,0,1,1,4-4A4,4,0,0,1,44.4,143.89Zm0-6.82a2.83,2.83,0,1,0,2.83,2.83A2.83,2.83,0,0,0,44.4,137.07Z"/></g><g id="3f2239b5-9303-4f22-8db7-aa385416b6fe" data-name="&lt;Group&gt;"><polygon id="97f60aa8-f535-4b72-9738-a82ab06b9de7" data-name="&lt;Path&gt;" class="10591934-038e-42fc-b293-00a561c2cd2b" points="46.6 73.71 52.69 68.26 54.37 76.26 46.6 73.71"/><path id="50ea6ad8-ff83-4114-a870-9615a591f662" data-name="&lt;Compound Path&gt;" class="1a11265d-9bd7-424e-980c-594ab64522bf" d="M54.37,76.85a.63.63,0,0,1-.19,0l-7.76-2.55a.58.58,0,0,1-.39-.44.57.57,0,0,1,.18-.56l6.09-5.45a.6.6,0,0,1,.57-.12.58.58,0,0,1,.39.44l1.68,8a.61.61,0,0,1-.18.56A.63.63,0,0,1,54.37,76.85Zm-6.62-3.38,5.84,1.92-1.26-6Z"/></g><g id="8ca3bfba-7483-49ec-b436-b5776e5aed6b" data-name="&lt;Group&gt;"><polygon id="894c9257-d29c-450b-a63e-a4bf74880e3f" data-name="&lt;Path&gt;" class="b133e670-cfc4-4573-9ca1-0392fdec4fb3" points="183.98 108.39 176.26 98.1 189.03 96.56 183.98 108.39"/><path id="01647ede-84fa-4772-b1b5-9ada7414cf4e" data-name="&lt;Compound Path&gt;" class="478fbe7e-e061-4b58-86d1-f6c345c934e6" d="M184,109a.6.6,0,0,1-.47-.23l-7.72-10.3a.58.58,0,0,1,.4-.93L189,96a.56.56,0,0,1,.54.23.58.58,0,0,1,.07.58l-5.06,11.84a.59.59,0,0,1-.46.35Zm-6.65-10.42,6.51,8.67,4.26-10Z"/></g><g id="d57b548a-1e7f-46a7-ad53-0a9881217b7f" data-name="&lt;Group&gt;"><g id="24864b0d-42f1-4438-bd11-69d69611822e" data-name="&lt;Group&gt;"><path id="9bec76ab-6502-4ce0-ae29-8289b9749aea" data-name="&lt;Path&gt;" class="5993f897-6d50-41bd-a674-d76c3ac04fc7" d="M91.94,166.85A2.85,2.85,0,0,1,89.26,165c-2.41-6.88-7.38-13.51-11.77-19.35-.46-.61-.91-1.21-1.35-1.81-9.75-13.07-10.66-30.16-2.45-45.71A32.4,32.4,0,0,1,87.36,84.48,45.8,45.8,0,0,1,108.71,79a40.64,40.64,0,0,1,40.59,40.59,40.2,40.2,0,0,1-8.37,24.67c-4.75,6.2-10.15,13.23-12.75,20.7a2.83,2.83,0,0,1-2.68,1.9Z"/></g><g id="b363f24c-2278-426a-b430-36e73f7d39c7" data-name="&lt;Group&gt;"><path id="65f45a0e-f3a1-4c88-81ea-6e48e6d4238e" data-name="&lt;Compound Path&gt;" class="478fbe7e-e061-4b58-86d1-f6c345c934e6" d="M108.71,79.57a40,40,0,0,1,31.76,64.33c-4.7,6.12-10.21,13.31-12.84,20.86a2.26,2.26,0,0,1-2.13,1.51H91.94a2.26,2.26,0,0,1-2.13-1.51c-2.69-7.69-8.48-15-13.2-21.31C67.86,131.72,65.4,115,74.2,98.37A32.07,32.07,0,0,1,87.63,85a45.27,45.27,0,0,1,21.08-5.43m0-1.17A46.18,46.18,0,0,0,87.09,84,32.92,32.92,0,0,0,73.17,97.82c-8.32,15.75-7.39,33.07,2.5,46.33.44.6.9,1.2,1.35,1.81,4.36,5.81,9.3,12.39,11.69,19.19a3.43,3.43,0,0,0,3.23,2.29H125.5a3.41,3.41,0,0,0,3.23-2.3c2.58-7.38,7.94-14.37,12.67-20.53a40.76,40.76,0,0,0,8.48-25A41.22,41.22,0,0,0,108.71,78.4Z"/></g></g><g id="1591b7f7-60f3-4f8d-a1e9-e1a04f2d892c" data-name="&lt;Group&gt;"><path id="2cf15811-b998-409b-8b8c-e013106bf5e1" data-name="&lt;Path&gt;" class="8f755a42-eca6-4acd-8b1f-f1b411555224" d="M148.66,117.73c0-.13,0-.26,0-.4v0c0-.61-.07-1.21-.13-1.81a.88.88,0,0,1,0-.16c-.06-.56-.13-1.12-.22-1.67,0-.12,0-.25-.05-.38-.1-.59-.2-1.18-.32-1.76,0-.07,0-.14-.05-.22-.11-.54-.24-1.07-.37-1.6,0-.1,0-.2-.07-.29-.16-.58-.32-1.16-.5-1.73l-.07-.22c-.17-.54-.35-1.08-.55-1.61l-.06-.16c-.21-.58-.43-1.14-.67-1.71a.61.61,0,0,1-.05-.12l0-.06c-.49-1.14-1-2.26-1.62-3.34l-.08-.14c-.6-1.09-1.26-2.16-2-3.19l0-.06v0c-.72-1-1.48-2.06-2.29-3l0,0c-.82-1-1.68-1.93-2.59-2.83a44.7,44.7,0,0,1-2.05,51.47A63.55,63.55,0,0,0,124,166.27h1.48a2.26,2.26,0,0,0,2.13-1.51c.17-.49.35-1,.54-1.46l0,0v0c.05-.14.12-.28.18-.43.13-.32.27-.65.41-1,.07-.16.15-.32.23-.49l.44-.95a.3.3,0,0,0,0-.08l0-.08c.07-.15.15-.3.23-.45l.42-.81.08-.15,0-.06.22-.4.46-.83.33-.57.48-.81.12-.21,0,0,.23-.36.47-.76.15-.24.06-.1.1-.14q.8-1.23,1.62-2.43l.09-.14,0,0,.17-.24c.17-.25.34-.5.52-.74l.21-.31.1-.13.1-.14.53-.74.27-.37.06-.08.09-.12.54-.73.29-.39,0,0,.09-.13c.2-.26.4-.52.59-.79.08-.09.15-.19.22-.28l.13-.17.66-.87.2-.26,0-.06.95-1.23a39.81,39.81,0,0,0,8.24-24.32C148.71,119,148.69,118.35,148.66,117.73Z"/></g><g id="5c79f1b1-db9c-4444-a226-cce4dccf01f1" data-name="&lt;Group&gt;"><path id="21ac0a1d-106f-43c5-81ba-920491d59d9b" data-name="&lt;Compound Path&gt;" class="478fbe7e-e061-4b58-86d1-f6c345c934e6" d="M76.3,114.37h-.07a.58.58,0,0,1-.51-.65,32.41,32.41,0,0,1,.84-4.26.59.59,0,0,1,.72-.42.6.6,0,0,1,.41.72,31.77,31.77,0,0,0-.81,4.11A.59.59,0,0,1,76.3,114.37Zm1.92-7.52a.78.78,0,0,1-.22,0,.59.59,0,0,1-.33-.76A33.52,33.52,0,0,1,108.05,84.8h0a.6.6,0,0,1,.59.58.58.58,0,0,1-.58.59,32.35,32.35,0,0,0-29.31,20.5A.59.59,0,0,1,78.22,106.85Z"/></g><g id="67f187c6-8633-429f-8c78-4a3e78f028df" data-name="&lt;Group&gt;"><rect id="54e866c0-e3df-41e4-bbe8-e0fe3646c7c1" data-name="&lt;Path&gt;" class="478fbe7e-e061-4b58-86d1-f6c345c934e6" x="108.12" y="135.39" width="1.17" height="31.41"/></g><g id="e16a922a-64e3-4a37-a486-8c02438314be" data-name="&lt;Group&gt;"><g id="30a9360d-e13f-4717-a830-7a10dc9a3369" data-name="&lt;Group&gt;"><path id="1ca88f92-58de-4896-8ec6-31ded274b2f4" data-name="&lt;Path&gt;" class="75318a8d-4543-475c-b4da-ee96ab61c020" d="M100.25,125.85a.87.87,0,0,1-.88-.87,3,3,0,1,0-6,0,.88.88,0,0,1-1.75,0,4.77,4.77,0,1,1,9.53,0A.87.87,0,0,1,100.25,125.85Z"/></g><g id="5715a2a5-b58f-449a-9ffa-2ecb04e895b5" data-name="&lt;Group&gt;"><path id="66a00af7-fb93-4eb7-81e1-7fc63fc3d6ac" data-name="&lt;Path&gt;" class="75318a8d-4543-475c-b4da-ee96ab61c020" d="M125,125.85a.87.87,0,0,1-.88-.87,3,3,0,1,0-6,0,.88.88,0,0,1-1.75,0,4.77,4.77,0,1,1,9.53,0A.87.87,0,0,1,125,125.85Z"/></g><g id="9737e15e-b9d1-4664-9594-340325d0f7f6" data-name="&lt;Group&gt;"><g id="25a7fa4f-2441-47e8-905c-a67eea9d70d4" data-name="&lt;Group&gt;"><g id="732e4bba-037d-4b3a-bfad-9efe3a0672a5" data-name="&lt;Group&gt;"><g id="3b47860e-798c-4021-8d5f-105094e544ca" data-name="&lt;Group&gt;"><path id="3294d6bc-a033-4522-a035-b746d2348547" data-name="&lt;Path&gt;" class="af3d176d-bc17-4fdd-adbd-ee05e1c80961" d="M123.69,129.14a.87.87,0,1,1-.86-.87A.87.87,0,0,1,123.69,129.14Z"/></g><g id="5df00415-41e9-4e0a-8bb1-6a180c16de0c" data-name="&lt;Group&gt;"><path id="4071c0f3-7fea-4b0d-94ac-5cd4a1c78476" data-name="&lt;Path&gt;" class="af3d176d-bc17-4fdd-adbd-ee05e1c80961" d="M127,129.14a.87.87,0,1,1-.87-.87A.87.87,0,0,1,127,129.14Z"/></g></g><g id="22b4e5fc-f364-47a2-970d-31867c8753a1" data-name="&lt;Group&gt;"><circle id="25f30f04-4de0-482a-b742-d686cd6ae33b" data-name="&lt;Path&gt;" class="af3d176d-bc17-4fdd-adbd-ee05e1c80961" cx="124.48" cy="132.17" r="0.87"/></g></g><g id="d03a586f-3f61-4ae6-8c3b-e964d03b9b6b" data-name="&lt;Group&gt;"><g id="37be4436-4a8c-42b3-aa3e-ccc7871536d6" data-name="&lt;Group&gt;"><g id="f6b0df01-7861-43e1-aa68-fc269cd9912c" data-name="&lt;Group&gt;"><path id="f5a5c228-4382-45da-8b41-341dc3611b5b" data-name="&lt;Path&gt;" class="af3d176d-bc17-4fdd-adbd-ee05e1c80961" d="M92.14,129.14a.87.87,0,0,1-1.73,0,.87.87,0,1,1,1.73,0Z"/></g><g id="f7f4d509-d411-4048-be5b-db40da7287b7" data-name="&lt;Group&gt;"><path id="75d2272b-94fd-443b-b7f6-a3912ec834ea" data-name="&lt;Path&gt;" class="af3d176d-bc17-4fdd-adbd-ee05e1c80961" d="M95.45,129.14a.87.87,0,1,1-.86-.87A.87.87,0,0,1,95.45,129.14Z"/></g></g><g id="4a4dabf4-f47f-47f7-ae41-79c6d6248eaa" data-name="&lt;Group&gt;"><circle id="de6cf0c6-4764-464c-b84e-7b3220e9266f" data-name="&lt;Path&gt;" class="af3d176d-bc17-4fdd-adbd-ee05e1c80961" cx="92.93" cy="132.17" r="0.87"/></g></g></g></g><g id="403297d2-783f-41c8-9d89-8353421f4780" data-name="&lt;Group&gt;"><path id="53dd137c-b14e-4b52-9299-1a958a7f114f" data-name="&lt;Path&gt;" class="75318a8d-4543-475c-b4da-ee96ab61c020" d="M108.71,134.54a3.63,3.63,0,0,0-5.13,5.13l5.13,5.12,5.12-5.12a3.62,3.62,0,0,0-5.12-5.13Z"/></g><g id="7e88a08f-68ee-4329-acb5-713ab5a5cd0d" data-name="&lt;Group&gt;"><path id="69c17c42-2602-4e88-b591-5688228c109a" data-name="&lt;Path&gt;" class="478fbe7e-e061-4b58-86d1-f6c345c934e6" d="M104.33,140.42l4.38,4.37,4.37-4.37a6.19,6.19,0,0,0-8.75,0Z"/></g><g id="13d313b6-3b3a-4f97-b2d9-983537c20a0f" data-name="&lt;Group&gt;"><circle id="f23ff39f-e692-404e-85bf-f3f82c29667e" data-name="&lt;Path&gt;" class="478fbe7e-e061-4b58-86d1-f6c345c934e6" cx="108.71" cy="185.86" r="7.71"/></g><g id="72aa33e9-4ae7-42d2-8d11-40b76970dd6d" data-name="&lt;Group&gt;"><g id="e0909f88-2a9e-43d0-ac3e-d7c203f2da5d" data-name="&lt;Group&gt;"><g id="17502cf9-6118-4ecc-ba36-4d8668e9d9fa" data-name="&lt;Group&gt;"><path id="046090ef-0c87-4bb9-90d9-f2ac7cbfa7f1" data-name="&lt;Path&gt;" class="8f755a42-eca6-4acd-8b1f-f1b411555224" d="M90.68,173.22a3.21,3.21,0,1,1,0-6.41h36.05a3.21,3.21,0,1,1,0,6.41Z"/></g><g id="63c56cd7-b98d-4aff-9d7c-cac18db7157f" data-name="&lt;Group&gt;"><path id="ec334012-5c05-475b-9180-b00a7f81c992" data-name="&lt;Compound Path&gt;" class="478fbe7e-e061-4b58-86d1-f6c345c934e6" d="M126.73,167.39a2.63,2.63,0,1,1,0,5.25h-36a2.63,2.63,0,0,1,0-5.25h36.05m0-1.17h-36a3.8,3.8,0,0,0,0,7.59h36.05a3.8,3.8,0,1,0,0-7.59Z"/></g></g><g id="fcebe31f-b9f7-4b57-b776-8fd49aefd6c5" data-name="&lt;Group&gt;"><path id="7a992a3b-1b06-410f-bbd8-1144e7f02fcc" data-name="&lt;Path&gt;" class="478fbe7e-e061-4b58-86d1-f6c345c934e6" d="M102.27,169.66H91a.59.59,0,0,1,0-1.17h11.29a.59.59,0,0,1,0,1.17Z"/></g><g id="312881db-2091-49c7-b3ea-34cd2029573a" data-name="&lt;Group&gt;"><path id="be8ae2a9-8e71-4b9c-9c73-e57592c6f702" data-name="&lt;Path&gt;" class="a64bdc21-caf7-4b9d-b576-abb0cfc4ecc1" d="M129.23,170.76h-41a2.62,2.62,0,0,0,2.5,1.88h36.05A2.61,2.61,0,0,0,129.23,170.76Z"/></g></g><g id="7b742a9b-06f9-40d1-afba-3cfa348badb1" data-name="&lt;Group&gt;"><g id="372d40a0-f113-4d27-a919-16c7615b31e6" data-name="&lt;Group&gt;"><g id="d6adcc48-0b50-43e2-802c-e2569830821b" data-name="&lt;Group&gt;"><path id="440748cc-5f0a-4e37-b9c7-2c1427bec61c" data-name="&lt;Path&gt;" class="8f755a42-eca6-4acd-8b1f-f1b411555224" d="M93.07,179.86a3.21,3.21,0,1,1,0-6.42h31.27a3.21,3.21,0,0,1,0,6.42Z"/></g><g id="f5b1237d-1024-41ee-a878-12fe3dd2b023" data-name="&lt;Group&gt;"><path id="59f6ca53-9fdd-49f8-98c3-64ca4c83d5c9" data-name="&lt;Compound Path&gt;" class="478fbe7e-e061-4b58-86d1-f6c345c934e6" d="M124.34,174a2.62,2.62,0,1,1,0,5.24H93.07a2.62,2.62,0,1,1,0-5.24h31.27m0-1.17H93.07a3.79,3.79,0,1,0,0,7.58h31.27a3.79,3.79,0,1,0,0-7.58Z"/></g></g><g id="6e8f6a8c-240e-4ce3-892f-f6552eb3978d" data-name="&lt;Group&gt;"><path id="edb519f7-18d5-409e-a1b2-94cec2775715" data-name="&lt;Path&gt;" class="478fbe7e-e061-4b58-86d1-f6c345c934e6" d="M102.27,176.29h-8.9a.58.58,0,0,1-.58-.58.59.59,0,0,1,.58-.59h8.9a.59.59,0,0,1,.58.59A.58.58,0,0,1,102.27,176.29Z"/></g><g id="a48fb9e3-f52d-4bea-9af0-bf8804420e11" data-name="&lt;Group&gt;"><path id="68b309e1-7234-4d77-ab87-a0098df5d050" data-name="&lt;Path&gt;" class="a64bdc21-caf7-4b9d-b576-abb0cfc4ecc1" d="M126.84,177.39H90.57a2.62,2.62,0,0,0,2.5,1.88h31.27A2.61,2.61,0,0,0,126.84,177.39Z"/></g></g><g id="d806f095-e5f0-4b2e-a7ec-fea3e0890487" data-name="&lt;Group&gt;"><g id="5f04afb9-60a3-4ea4-b4d6-2b88daa523fd" data-name="&lt;Group&gt;"><g id="d898acc0-23d3-4830-8cbf-ccf642331997" data-name="&lt;Group&gt;"><path id="dc3faab9-d718-4654-8b6a-114781866f41" data-name="&lt;Path&gt;" class="8f755a42-eca6-4acd-8b1f-f1b411555224" d="M97.35,186.44a3.21,3.21,0,1,1,0-6.41h22.72a3.21,3.21,0,0,1,0,6.41Z"/></g><g id="ee1469bb-9a60-461a-953f-28cafe494f13" data-name="&lt;Group&gt;"><path id="733d391b-b0b5-4c48-b239-ad58a03e6a04" data-name="&lt;Compound Path&gt;" class="478fbe7e-e061-4b58-86d1-f6c345c934e6" d="M120.07,180.61a2.63,2.63,0,0,1,0,5.25H97.35a2.63,2.63,0,1,1,0-5.25h22.72m0-1.17H97.35a3.8,3.8,0,1,0,0,7.59h22.72a3.8,3.8,0,0,0,0-7.59Z"/></g></g><g id="e6fe1dc1-80db-4544-b67f-73f01a816999" data-name="&lt;Group&gt;"><path id="8dd9a2fa-5412-48a7-8861-dd0fed196248" data-name="&lt;Path&gt;" class="478fbe7e-e061-4b58-86d1-f6c345c934e6" d="M102.27,182.88H97.65a.59.59,0,0,1,0-1.17h4.62a.59.59,0,0,1,0,1.17Z"/></g><g id="b78ae69c-a9cc-4c4b-9044-b14f4d21ba98" data-name="&lt;Group&gt;"><path id="66a44f74-7535-461e-aa88-554ab740d736" data-name="&lt;Path&gt;" class="a64bdc21-caf7-4b9d-b576-abb0cfc4ecc1" d="M122.57,184H94.85a2.61,2.61,0,0,0,2.5,1.88h22.72A2.63,2.63,0,0,0,122.57,184Z"/></g></g><g id="5cf07d2b-5049-45ed-b951-508b042a1810" data-name="&lt;Group&gt;"><path id="77d8e993-34e1-41b5-9cb1-ca7c4aa98d23" data-name="&lt;Compound Path&gt;" class="478fbe7e-e061-4b58-86d1-f6c345c934e6" d="M108.71,49.71a.58.58,0,0,1-.59-.59V43a.59.59,0,1,1,1.17,0v6.11A.58.58,0,0,1,108.71,49.71Zm0-12.22a.58.58,0,0,1-.59-.58V32.63a.59.59,0,0,1,1.17,0v4.28A.58.58,0,0,1,108.71,37.49Zm0-7.78a.59.59,0,0,1-.59-.59V17.41a.59.59,0,0,1,1.17,0V29.12A.59.59,0,0,1,108.71,29.71Z"/></g><g id="dc04eb0f-bb1d-402b-9b75-bb1709033bdd" data-name="&lt;Group&gt;"><path id="5e2e1caa-a63a-469b-932d-bd78a645ff2d" data-name="&lt;Compound Path&gt;" class="478fbe7e-e061-4b58-86d1-f6c345c934e6" d="M79.19,72.85a.6.6,0,0,1-.51-.3L74.5,65.31a.59.59,0,0,1,1-.58L79.7,72a.59.59,0,0,1-.22.8A.6.6,0,0,1,79.19,72.85ZM72,60.32a.59.59,0,0,1-.51-.29l-2.14-3.7a.59.59,0,0,1,1-.59l2.13,3.7a.58.58,0,0,1-.21.8A.6.6,0,0,1,72,60.32Zm-3.89-6.74a.6.6,0,0,1-.51-.29L61.7,43.15a.59.59,0,0,1,.22-.8.58.58,0,0,1,.8.21L68.57,52.7a.59.59,0,0,1-.21.8A.6.6,0,0,1,68.07,53.58Z"/></g><g id="11140792-7ccd-4342-9fe1-bd346f290e9f" data-name="&lt;Group&gt;"><path id="ad79ff3d-b5e4-4e9d-93b5-0ddc65b60cf3" data-name="&lt;Compound Path&gt;" class="478fbe7e-e061-4b58-86d1-f6c345c934e6" d="M50.48,90.35a.59.59,0,0,1-.29-.07l-2-1.17a.59.59,0,0,1,.59-1l2,1.17a.59.59,0,0,1,.21.8A.57.57,0,0,1,50.48,90.35Zm-5.07-2.92a.6.6,0,0,1-.29-.08L35,81.49a.57.57,0,0,1-.21-.8.59.59,0,0,1,.8-.21l10.14,5.85a.59.59,0,0,1,.21.8A.6.6,0,0,1,45.41,87.43Z"/></g><g id="7e6254e1-7cf1-488c-923a-5f1c9bebf865" data-name="&lt;Group&gt;"><path id="4cd04695-37b8-472f-8d6b-503569872ef3" data-name="&lt;Compound Path&gt;" class="478fbe7e-e061-4b58-86d1-f6c345c934e6" d="M40.48,124H36.21a.59.59,0,1,1,0-1.17h4.27a.59.59,0,0,1,0,1.17Zm-7.79,0H21a.59.59,0,1,1,0-1.17h11.7a.59.59,0,1,1,0,1.17Z"/></g><g id="edb50943-0fbb-4336-bd9a-a6434a5079ec" data-name="&lt;Group&gt;"><path id="f64fc9ef-3a9c-4172-8a2c-d66a5d94d66c" data-name="&lt;Compound Path&gt;" class="478fbe7e-e061-4b58-86d1-f6c345c934e6" d="M35.27,166.37a.57.57,0,0,1-.5-.3.58.58,0,0,1,.21-.8l10.14-5.85a.58.58,0,1,1,.59,1l-10.14,5.86A.67.67,0,0,1,35.27,166.37Zm13.19-7.61a.59.59,0,0,1-.3-1.1l2-1.17a.59.59,0,0,1,.59,1l-2,1.17A.6.6,0,0,1,48.46,158.76Z"/></g><g id="73d29af8-89ca-4ffb-9764-dd40f3891bb6" data-name="&lt;Group&gt;"><path id="5c553b17-adf7-46b3-bdbe-3a0111dbd453" data-name="&lt;Compound Path&gt;" class="478fbe7e-e061-4b58-86d1-f6c345c934e6" d="M182.14,166.37a.6.6,0,0,1-.29-.08l-10.14-5.86a.58.58,0,1,1,.58-1l10.14,5.85a.59.59,0,0,1-.29,1.1ZM169,158.76a.67.67,0,0,1-.3-.08l-2-1.17a.59.59,0,0,1,.58-1l2,1.17a.59.59,0,0,1-.29,1.1Z"/></g><g id="4db8a6a5-aa5d-467e-9543-58272b29e31a" data-name="&lt;Group&gt;"><path id="a1f03b08-7c74-413f-a4a9-8deb78af6dc5" data-name="&lt;Compound Path&gt;" class="478fbe7e-e061-4b58-86d1-f6c345c934e6" d="M196.43,124H184.72a.59.59,0,1,1,0-1.17h11.71a.59.59,0,0,1,0,1.17Zm-15.23,0h-4.27a.59.59,0,0,1,0-1.17h4.27a.59.59,0,1,1,0,1.17Z"/></g><g id="cc6dc4b5-6e6b-4803-a91f-5ba95644a7a9" data-name="&lt;Group&gt;"><path id="e32016ce-9f96-4a52-972a-53692294319b" data-name="&lt;Compound Path&gt;" class="478fbe7e-e061-4b58-86d1-f6c345c934e6" d="M166.42,90.65a.59.59,0,0,1-.29-1.1l3-1.75a.58.58,0,0,1,.59,1l-3,1.76A.6.6,0,0,1,166.42,90.65Zm6.09-3.52a.57.57,0,0,1-.51-.29.59.59,0,0,1,.21-.8l10.14-5.85a.58.58,0,0,1,.59,1L172.8,87.06A.59.59,0,0,1,172.51,87.13Z"/></g><g id="e636f736-3d84-4afa-aeac-96885f5f15e0" data-name="&lt;Group&gt;"><path id="a35d4d30-c3c8-43ad-b697-89b9d8793551" data-name="&lt;Compound Path&gt;" class="478fbe7e-e061-4b58-86d1-f6c345c934e6" d="M142,66.24a.53.53,0,0,1-.29-.08.59.59,0,0,1-.21-.8l2.13-3.7a.59.59,0,0,1,1,.59L142.54,66A.57.57,0,0,1,142,66.24Zm3.9-6.74a.56.56,0,0,1-.3-.08.59.59,0,0,1-.21-.8l5.85-10.14a.59.59,0,0,1,1,.59l-5.86,10.14A.56.56,0,0,1,145.93,59.5Z"/></g></g></g></g></svg>