<svg xmlns="http://www.w3.org/2000/svg" width="40.48" height="40.48" viewBox="0 0 40.48 40.48"><title>mail</title><g id="f0b116d4-e828-468c-a863-ffc014651063" data-name="Layer 2"><g id="5dfa7fda-eb43-4739-aa0a-d61c43095c28" data-name="Layer 1"><path d="M20.24,0A20.24,20.24,0,1,0,40.48,20.24,20.24,20.24,0,0,0,20.24,0ZM11.5,13.09H29a1.54,1.54,0,0,1,1,.35l-7.78,7.92a2.7,2.7,0,0,1-1.94.82,2.67,2.67,0,0,1-1.94-.82l-7.78-7.92A1.54,1.54,0,0,1,11.5,13.09ZM30.56,25.8A1.59,1.59,0,0,1,29,27.38H11.51A1.59,1.59,0,0,1,9.92,25.8V14.92a.1.1,0,0,1,.17-.07l5.34,5.43a.1.1,0,0,1,0,.14l-3.74,4a.65.65,0,0,0,.46,1.1.63.63,0,0,0,.46-.19l3.72-4a.1.1,0,0,1,.14,0l.88.89a4,4,0,0,0,2.9,1.23,4,4,0,0,0,2.85-1.2l.91-.92a.1.1,0,0,1,.14,0l3.72,4a.65.65,0,0,0,.92-.91l-3.74-4a.1.1,0,0,1,0-.14l5.34-5.43a.1.1,0,0,1,.17.07Z" style="fill:blue"/></g></g></svg>