<svg xmlns="http://www.w3.org/2000/svg" viewBox="0 0 40.48 40.48"><defs><style>.\34 78172eb-f1a2-47d1-a024-15a0ef9e9110{fill:blue;}</style></defs><title>mobile</title><g id="dab13383-a4ed-440c-a8bf-22f1470fb821" data-name="Layer 2"><g id="b2e89917-2840-4fa0-8582-b8f43c4d688f" data-name="Layer 1"><path class="478172eb-f1a2-47d1-a024-15a0ef9e9110" d="M19.64,13h1.19A.16.16,0,0,0,21,12.8a.16.16,0,0,0-.16-.15H19.64a.16.16,0,1,0,0,.31Z"/><path class="478172eb-f1a2-47d1-a024-15a0ef9e9110" d="M20.26,27a.7.7,0,1,0,.69.69A.69.69,0,0,0,20.26,27Z"/><path class="478172eb-f1a2-47d1-a024-15a0ef9e9110" d="M20.24,0A20.24,20.24,0,1,0,40.48,20.24,20.24,20.24,0,0,0,20.24,0Zm5.82,27.65a1.66,1.66,0,0,1-1.66,1.64H16.08a1.66,1.66,0,0,1-1.66-1.64V12.83a1.66,1.66,0,0,1,1.66-1.64H24.4a1.66,1.66,0,0,1,1.66,1.64Z"/><rect class="478172eb-f1a2-47d1-a024-15a0ef9e9110" x="15.87" y="14.42" width="8.73" height="11.64"/></g></g></svg>