<svg xmlns="http://www.w3.org/2000/svg" width="40.48" height="40.48" viewBox="0 0 40.48 40.48"><title>phone</title><g id="f49ce09f-38cc-45bb-be8d-7fb15f4ffa9d" data-name="Layer 2"><g id="a20ff3a1-d66b-4e7b-860b-1fc36508c3f7" data-name="Layer 1"><path d="M20.24,0A20.24,20.24,0,1,0,40.48,20.24,20.24,20.24,0,0,0,20.24,0Zm9,26.64a6.81,6.81,0,0,1-.61,1.13,3.38,3.38,0,0,1-1.43,1.37c-.59.27-1.67.58-4.51-1a25,25,0,0,1-5.9-4.42h0a25.2,25.2,0,0,1-4.43-5.9c-1.59-2.84-1.28-3.93-1-4.51a3.55,3.55,0,0,1,1.36-1.44,7.56,7.56,0,0,1,1.14-.6c.38-.14.54-.29,1.24.41a15.16,15.16,0,0,1,2.14,3.2c.46,1,.45,1.31,0,2s-.78.92-.65,1.58a9.41,9.41,0,0,0,2.35,3.17,9.52,9.52,0,0,0,3.18,2.35c.65.14,1-.24,1.58-.64s1-.5,2,0a15,15,0,0,1,3.2,2.14C29.53,26.1,29.38,26.25,29.24,26.64Z" style="fill:blue"/></g></g></svg>