<svg xmlns="http://www.w3.org/2000/svg" viewBox="0 0 216.79 216.79"><defs><style>.\36 b3f9d11-728c-46ec-a13e-6d1e44019f62{fill:#daedfa;}.\31 820512b-0488-40c8-a56f-f4d925ac366a{fill:#cfe7fa;}.\31 bb3f79c-4590-4f71-a8b8-d4a175214bd4{fill:blue;}.\38 709d6b7-c237-443c-98b7-949a5541d2d7{fill:#beefc9;}.c23ef78e-a98b-418b-b7f8-aefff22db5ff{fill:#80df96;}.\32 a00ac0e-bb23-4eac-9dcf-ca78354b39c0{fill:#fff;}.\31 52e3e72-5547-41c9-ac60-ed4067a41232{fill:#acd3f7;}.a76e7085-fe45-4938-920f-5baffe7525ec{fill:#535b7a;}.\30 4c2d627-603e-4358-b803-3c744ff0b9a9{fill:#90caf4;}</style></defs><title>responsive</title><g id="093f5de3-c26c-474d-ad67-68705c1c926a" data-name="Layer 2"><g id="5a4dc514-1e46-41df-85eb-c3a20b3832d3" data-name="Layer 1"><g id="8cb88466-5ebb-4cfa-b906-aeddb9f87d0d" data-name="&lt;Group&gt;"><g id="d7385eb2-f761-4991-aa8e-149ceb9fafd6" data-name="&lt;Group&gt;"><circle id="e5e09ef4-5b4e-4469-b0de-f088b2d1250c" data-name="&lt;Path&gt;" class="6b3f9d11-728c-46ec-a13e-6d1e44019f62" cx="108.4" cy="108.4" r="108.4" transform="translate(-44.9 108.4) rotate(-45)"/></g><g id="cce993f0-f9e4-4ccd-bae5-ccd39b3e1689" data-name="&lt;Group&gt;"><path id="c7038e1c-8f5a-4aa8-b17e-d666b620a7a0" data-name="&lt;Path&gt;" class="1820512b-0488-40c8-a56f-f4d925ac366a" d="M86.74,49a3.4,3.4,0,1,1-3.4-3.39A3.4,3.4,0,0,1,86.74,49Z"/><path id="617e8c96-5317-453f-8102-210fc657df86" data-name="&lt;Compound Path&gt;" class="1bb3f79c-4590-4f71-a8b8-d4a175214bd4" d="M83.34,53a4,4,0,1,1,4-4A4,4,0,0,1,83.34,53Zm0-6.8A2.82,2.82,0,1,0,86.16,49,2.81,2.81,0,0,0,83.34,46.17Z"/></g><g id="df5bff85-949f-4234-97e5-ea8367cb16e4" data-name="&lt;Group&gt;"><polygon id="2c59d45c-f006-496c-ac9a-1950c8fe31cd" data-name="&lt;Path&gt;" class="8709d6b7-c237-443c-98b7-949a5541d2d7" points="130.76 32.82 136.84 27.39 138.51 35.37 130.76 32.82"/><path id="ae160a4c-d575-4ca2-8e61-205a0d3a50d9" data-name="&lt;Compound Path&gt;" class="c23ef78e-a98b-418b-b7f8-aefff22db5ff" d="M138.51,36a.57.57,0,0,1-.18,0l-7.75-2.54a.6.6,0,0,1-.39-.44.58.58,0,0,1,.19-.55L136.45,27a.6.6,0,0,1,.57-.12.58.58,0,0,1,.39.44l1.67,8a.6.6,0,0,1-.18.55A.58.58,0,0,1,138.51,36Zm-6.6-3.37,5.82,1.92-1.25-6Z"/></g><g id="826fd906-dd18-4b07-a2ef-79df59be9d36" data-name="&lt;Group&gt;"><polygon id="c704ac2b-c371-4fff-8366-9352a76489f4" data-name="&lt;Path&gt;" class="1820512b-0488-40c8-a56f-f4d925ac366a" points="167.68 72.04 162.79 65.51 170.89 64.54 167.68 72.04"/><path id="1d9e9ccb-acb1-48cf-b5cb-993dca7bddcb" data-name="&lt;Compound Path&gt;" class="1bb3f79c-4590-4f71-a8b8-d4a175214bd4" d="M167.68,72.62a.59.59,0,0,1-.46-.23l-4.89-6.53a.55.55,0,0,1-.07-.58.59.59,0,0,1,.46-.35l8.1-1a.57.57,0,0,1,.53.23.56.56,0,0,1,.07.58l-3.2,7.5a.59.59,0,0,1-.47.35ZM163.87,66l3.67,4.91L170,65.24Z"/></g><g id="7bea28dc-acc2-4cf1-9818-9413b15b3c77" data-name="&lt;Group&gt;"><polygon id="880beb27-8a8a-4c0c-a28d-a3fec37bbac0" data-name="&lt;Path&gt;" class="1bb3f79c-4590-4f71-a8b8-d4a175214bd4" points="22.6 80.04 19.82 59.08 39.36 67.15 22.6 80.04"/><path id="16d80ddc-4d2b-40e3-b3ff-4caa2e2a8b91" data-name="&lt;Compound Path&gt;" class="1bb3f79c-4590-4f71-a8b8-d4a175214bd4" d="M22.6,80.62a.59.59,0,0,1-.23,0,.57.57,0,0,1-.35-.46l-2.78-21a.56.56,0,0,1,.22-.54.58.58,0,0,1,.58-.08l19.54,8.07a.61.61,0,0,1,.36.46.59.59,0,0,1-.23.54L23,80.5A.57.57,0,0,1,22.6,80.62ZM20.53,60,23,79,38.2,67.3Z"/></g><g id="2d957315-ee3d-444a-af34-059338c7ee93" data-name="&lt;Group&gt;"><g id="c9e4af70-5238-4d24-b896-37b58a80dc81" data-name="&lt;Group&gt;"><rect id="21a2fcd9-b5ab-4255-9eb5-b92fc649634b" data-name="&lt;Path&gt;" class="1820512b-0488-40c8-a56f-f4d925ac366a" x="41.52" y="83.26" width="135.51" height="82.08" rx="2.75" ry="2.75"/></g><g id="4315db6d-5620-40cc-a3fb-2f2fd906268d" data-name="&lt;Group&gt;"><g id="c592a6bd-2176-4155-8c0b-7eb059d978a8" data-name="&lt;Group&gt;"><path id="d9745b15-3a7b-44fa-8f4c-3cd40124d1ba" data-name="&lt;Compound Path&gt;" class="1bb3f79c-4590-4f71-a8b8-d4a175214bd4" d="M174.28,83.84A2.18,2.18,0,0,1,176.45,86v76.58a2.18,2.18,0,0,1-2.17,2.17h-130a2.18,2.18,0,0,1-2.17-2.17V86a2.18,2.18,0,0,1,2.17-2.17h130m0-1.17h-130A3.34,3.34,0,0,0,40.94,86v76.58a3.33,3.33,0,0,0,3.33,3.33h130a3.33,3.33,0,0,0,3.33-3.33V86a3.34,3.34,0,0,0-3.33-3.34Z"/></g></g></g><g id="c7b879ba-467e-4ddb-9a34-6481f5c86c21" data-name="&lt;Group&gt;"><g id="6c119be8-602c-467f-9ea6-d5fe8f278115" data-name="&lt;Group&gt;"><rect id="ab0c53c7-a950-41bd-9f4b-7b777e964461" data-name="&lt;Path&gt;" class="2a00ac0e-bb23-4eac-9dcf-ca78354b39c0" x="48.28" y="90.02" width="121.99" height="68.56"/></g><g id="74c419ba-df2a-4e0e-9d3e-bdc1cb03915d" data-name="&lt;Group&gt;"><path id="6c2aad4c-60f9-40c6-baf9-706fbad0b9c7" data-name="&lt;Compound Path&gt;" class="1bb3f79c-4590-4f71-a8b8-d4a175214bd4" d="M169.6,90.68v67.23H49V90.68H169.6m1.34-1.33H47.61v69.9H170.94V89.35Z"/></g></g><g id="0d167942-578f-4c64-95fa-cb69d40845c2" data-name="&lt;Group&gt;"><g id="d15de604-402f-4fd4-90d7-3a3a033eae90" data-name="&lt;Group&gt;"><rect id="a6b3b25a-255f-4f2e-a25f-89facc1e3152" data-name="&lt;Path&gt;" class="1820512b-0488-40c8-a56f-f4d925ac366a" x="93.78" y="165.34" width="30.99" height="14.51" rx="0.58" ry="0.58"/></g><g id="e7722c7d-1561-4f40-8f3d-58ee11834b55" data-name="&lt;Group&gt;"><g id="235b60e2-56f6-400c-9da3-29c0a3f97cf5" data-name="&lt;Group&gt;"><path id="5c9350cb-85d2-4e9e-9666-4c5736110a66" data-name="&lt;Compound Path&gt;" class="1bb3f79c-4590-4f71-a8b8-d4a175214bd4" d="M124.19,165.92v13.34H94.36V165.92h29.83m0-1.16H94.36a1.16,1.16,0,0,0-1.16,1.16v13.34a1.16,1.16,0,0,0,1.16,1.17h29.83a1.16,1.16,0,0,0,1.16-1.17V165.92a1.16,1.16,0,0,0-1.16-1.16Z"/></g></g></g><g id="b4470a7c-0ca9-439e-9e88-2eab8f9d21f0" data-name="&lt;Group&gt;"><rect id="c090a8f1-e6b2-41fe-ad9c-4ee71e07e042" data-name="&lt;Path&gt;" class="152e3e72-5547-41c9-ac60-ed4067a41232" x="94.36" y="165.92" width="29.82" height="3.82"/></g><g id="e7baa630-f6d3-4d81-b890-6399196fba00" data-name="&lt;Group&gt;"><path id="85485af2-3781-4929-b869-e04077a7d8ae" data-name="&lt;Path&gt;" class="1bb3f79c-4590-4f71-a8b8-d4a175214bd4" d="M110.78,86.69a1.51,1.51,0,1,1-1.5-1.5A1.5,1.5,0,0,1,110.78,86.69Z"/></g><g id="d72fde51-509b-482d-aa93-41c30a488c75" data-name="&lt;Group&gt;"><rect id="6c714b02-0e48-48d0-b955-33a9a0e66407" data-name="&lt;Rectangle&gt;" class="1820512b-0488-40c8-a56f-f4d925ac366a" x="83.91" y="179.26" width="50.73" height="6.16"/><path id="2f18bfd3-3c78-488a-b903-a81dd3b2b17a" data-name="&lt;Compound Path&gt;" class="1bb3f79c-4590-4f71-a8b8-d4a175214bd4" d="M134.64,186H83.91a.58.58,0,0,1-.58-.58v-6.16a.58.58,0,0,1,.58-.58h50.73a.58.58,0,0,1,.58.58v6.16A.58.58,0,0,1,134.64,186ZM84.5,184.83h49.55v-5H84.5Z"/></g><g id="f9915056-32a1-43d0-95d1-fa9a1356435a" data-name="&lt;Group&gt;"><rect id="64cfb4c9-6648-4349-a159-9b460c1dee6a" data-name="&lt;Rectangle&gt;" class="1820512b-0488-40c8-a56f-f4d925ac366a" x="54.93" y="97.36" width="108.68" height="31.44"/><path id="1625fb79-8f93-4035-bf27-7d2a5eaf2562" data-name="&lt;Compound Path&gt;" class="1bb3f79c-4590-4f71-a8b8-d4a175214bd4" d="M163.62,129.39H54.93a.59.59,0,0,1-.58-.59V97.36a.59.59,0,0,1,.58-.59H163.62a.59.59,0,0,1,.58.59V128.8A.59.59,0,0,1,163.62,129.39Zm-108.1-1.17H163V97.94H55.52Z"/></g><g id="89ae5954-9982-4eb0-947b-ff7f073a319a" data-name="&lt;Group&gt;"><path id="6de519fa-492f-4f95-b781-0612f4a72712" data-name="&lt;Path&gt;" class="a76e7085-fe45-4938-920f-5baffe7525ec" d="M100.84,110.9A.88.88,0,0,1,100,110a3,3,0,1,0-6,0,.88.88,0,0,1-1.76,0,4.76,4.76,0,1,1,9.51,0A.87.87,0,0,1,100.84,110.9Z"/></g><g id="84e9e4d9-f022-48b6-bc4e-b6587d58bc74" data-name="&lt;Group&gt;"><g id="9db4a6de-2c44-4c86-829f-28466911cedc" data-name="&lt;Group&gt;"><path id="8a6e2578-c829-4f5b-9e16-5fb9f311a818" data-name="&lt;Path&gt;" class="a76e7085-fe45-4938-920f-5baffe7525ec" d="M112.3,116.79a.87.87,0,0,0-.68.32,3,3,0,0,1-4.69,0,.87.87,0,0,0-.68-.32h0a.88.88,0,0,0-.71,1.4,4.74,4.74,0,0,0,7.47,0,.88.88,0,0,0-.71-1.4Z"/></g></g><g id="7a2f5cc3-f911-491c-8883-f7b8dfe099ed" data-name="&lt;Group&gt;"><path id="37ba9837-adb2-448b-bbf9-485539eaa572" data-name="&lt;Path&gt;" class="a76e7085-fe45-4938-920f-5baffe7525ec" d="M125.47,110.9a.88.88,0,0,1-.88-.87,3,3,0,1,0-6,0,.88.88,0,0,1-1.75,0,4.76,4.76,0,1,1,9.51,0A.88.88,0,0,1,125.47,110.9Z"/></g><g id="11acfd5b-fec4-410b-8b5a-902d47761e32" data-name="&lt;Group&gt;"><g id="426c5ee8-c1ac-450a-bdf0-c8311510eed3" data-name="&lt;Group&gt;"><g id="56cd31b0-dc8c-46fd-b1b9-a9c7e71a7afc" data-name="&lt;Group&gt;"><g id="f697c08b-aba2-4234-88f0-1cabb8484332" data-name="&lt;Group&gt;"><path id="6d5547df-580e-4552-9711-d3035479c9ce" data-name="&lt;Path&gt;" class="04c2d627-603e-4358-b803-3c744ff0b9a9" d="M124.22,114.17a.87.87,0,1,1-.86-.86A.87.87,0,0,1,124.22,114.17Z"/></g><g id="238a8e29-0487-4a2d-bd34-547a94fa4822" data-name="&lt;Group&gt;"><path id="e6d399c2-e144-4cec-a756-4445bd944611" data-name="&lt;Path&gt;" class="04c2d627-603e-4358-b803-3c744ff0b9a9" d="M127.52,114.17a.87.87,0,1,1-.87-.86A.87.87,0,0,1,127.52,114.17Z"/></g></g><g id="3d0f6bfd-8d08-4e37-af16-39d2af2de7a0" data-name="&lt;Group&gt;"><circle id="51840bb5-e6e8-40d2-8a73-ec8718c25593" data-name="&lt;Path&gt;" class="04c2d627-603e-4358-b803-3c744ff0b9a9" cx="125" cy="117.2" r="0.86"/></g></g><g id="75a964d7-1546-421e-bdb9-44e65e7732ee" data-name="&lt;Group&gt;"><g id="340dd1d9-6f2c-4531-826a-93265738ef23" data-name="&lt;Group&gt;"><g id="95fa6764-f7b9-4798-8144-c8958c48ad17" data-name="&lt;Group&gt;"><path id="858bac08-1f17-4718-b01d-f7c2e36da06f" data-name="&lt;Path&gt;" class="04c2d627-603e-4358-b803-3c744ff0b9a9" d="M92.76,114.17a.87.87,0,1,1-.86-.86A.87.87,0,0,1,92.76,114.17Z"/></g><g id="a419fa47-17d1-48b3-92bd-e11bcfd9667e" data-name="&lt;Group&gt;"><path id="4005d346-7ca1-4a41-9b18-3d82b191be5c" data-name="&lt;Path&gt;" class="04c2d627-603e-4358-b803-3c744ff0b9a9" d="M96.06,114.17a.87.87,0,1,1-.86-.86A.87.87,0,0,1,96.06,114.17Z"/></g></g><g id="3f439532-7ed1-481a-a3a4-151e55bdff93" data-name="&lt;Group&gt;"><circle id="5a50f736-894a-486d-9a4c-79d083b7eb13" data-name="&lt;Path&gt;" class="04c2d627-603e-4358-b803-3c744ff0b9a9" cx="93.55" cy="117.2" r="0.86"/></g></g></g><g id="c1fed1dc-9232-4c5f-bc9f-52066f938c1d" data-name="&lt;Group&gt;"><path id="8fa61900-df46-4a82-8bdf-d8d91cb7ed4d" data-name="&lt;Path&gt;" class="1bb3f79c-4590-4f71-a8b8-d4a175214bd4" d="M108.47,136.38H54.86a.59.59,0,0,1,0-1.17h53.61a.59.59,0,0,1,0,1.17Z"/></g><g id="f75300f1-148e-4da7-8342-47bb1dd4e473" data-name="&lt;Group&gt;"><path id="063eb909-7554-4708-9b41-93f3c01a7a23" data-name="&lt;Path&gt;" class="1bb3f79c-4590-4f71-a8b8-d4a175214bd4" d="M101.15,142.39H54.86a.59.59,0,0,1,0-1.17h46.29a.59.59,0,0,1,0,1.17Z"/></g><g id="76bef193-01a6-4fd4-9e68-88ffefd60efc" data-name="&lt;Group&gt;"><path id="44dc33b1-7806-4e74-a73b-a8c70d7bd01d" data-name="&lt;Path&gt;" class="c23ef78e-a98b-418b-b7f8-aefff22db5ff" d="M69.34,151.39H56.29a1.87,1.87,0,0,1-1.86-1.86h0a1.87,1.87,0,0,1,1.86-1.86H69.34a1.87,1.87,0,0,1,1.86,1.86h0A1.87,1.87,0,0,1,69.34,151.39Z"/></g><g id="0ddc8a91-dd3c-446b-b12a-acde7a71bb19" data-name="&lt;Group&gt;"><g id="799f940f-894c-419e-99de-a9e2825a5a52" data-name="&lt;Group&gt;"><rect id="6ee08dce-3a0b-4a66-8ba3-8e5cad7a539c" data-name="&lt;Rectangle&gt;" class="1820512b-0488-40c8-a56f-f4d925ac366a" x="21.26" y="109.29" width="55.42" height="76.77" rx="3.14" ry="3.14"/><path id="264255a2-aadc-48f2-8b0f-d0fb35f32431" data-name="&lt;Compound Path&gt;" class="1bb3f79c-4590-4f71-a8b8-d4a175214bd4" d="M73,186.64H24.9a4.24,4.24,0,0,1-4.23-4.23V112.94a4.24,4.24,0,0,1,4.23-4.24H73a4.24,4.24,0,0,1,4.24,4.24v69.47A4.24,4.24,0,0,1,73,186.64ZM24.9,109.87a3.07,3.07,0,0,0-3.06,3.07v69.47a3.06,3.06,0,0,0,3.06,3.06H73a3.07,3.07,0,0,0,3.07-3.06V112.94A3.08,3.08,0,0,0,73,109.87Z"/></g><g id="02f51043-f096-49f6-831c-b9e62b4ed261" data-name="&lt;Group&gt;"><g id="f1585810-1014-40fe-8962-b4211d55b63f" data-name="&lt;Group&gt;"><rect id="9bdbfdc8-ee7e-4c56-9245-b3635ef609a4" data-name="&lt;Path&gt;" class="2a00ac0e-bb23-4eac-9dcf-ca78354b39c0" x="28.55" y="116.59" width="40.82" height="59.25"/><path id="8b5a580d-75ed-4d43-909a-fc1121360bd7" data-name="&lt;Compound Path&gt;" class="1bb3f79c-4590-4f71-a8b8-d4a175214bd4" d="M69.38,176.42H28.55a.58.58,0,0,1-.58-.58V116.59a.58.58,0,0,1,.58-.59H69.38a.58.58,0,0,1,.58.59v59.25A.58.58,0,0,1,69.38,176.42Zm-40.24-1.17H68.79V117.17H29.14Z"/></g></g><g id="e7c30f0a-d547-4db2-9244-eafdcce4a343" data-name="&lt;Group&gt;"><circle id="ad56e350-1284-4d5b-8c91-ededce087051" data-name="&lt;Path&gt;" class="1bb3f79c-4590-4f71-a8b8-d4a175214bd4" cx="48.96" cy="181.22" r="1.64"/></g><g id="0201463c-f004-4fba-b5df-a9aa5aa8a9b6" data-name="&lt;Group&gt;"><rect id="96660cf3-c74b-4e61-a26c-c447b15291f5" data-name="&lt;Rectangle&gt;" class="1820512b-0488-40c8-a56f-f4d925ac366a" x="33.97" y="121.62" width="30" height="18.24"/><path id="dfa8f779-85d2-4a46-9dc5-334a0280d718" data-name="&lt;Compound Path&gt;" class="1bb3f79c-4590-4f71-a8b8-d4a175214bd4" d="M64,140.44H34a.58.58,0,0,1-.59-.58V121.62A.58.58,0,0,1,34,121H64a.59.59,0,0,1,.59.58v18.24A.59.59,0,0,1,64,140.44Zm-29.41-1.16H63.38V122.21H34.55Z"/></g><g id="73e25d47-ca3f-4d20-9e8b-95957e6aea34" data-name="&lt;Group&gt;"><path id="46f00e7d-0e30-41ea-bf1a-e16b33d3e29a" data-name="&lt;Path&gt;" class="1bb3f79c-4590-4f71-a8b8-d4a175214bd4" d="M63.61,145.65H33.46a.59.59,0,0,1-.58-.59.58.58,0,0,1,.58-.58H63.61a.58.58,0,0,1,.58.58A.59.59,0,0,1,63.61,145.65Z"/></g><g id="30e07832-c7bb-40b3-8b59-4d84bcbfe8d9" data-name="&lt;Group&gt;"><path id="670adb33-4dc6-4942-adee-41af180059f9" data-name="&lt;Path&gt;" class="1bb3f79c-4590-4f71-a8b8-d4a175214bd4" d="M63.61,149.81H33.46a.59.59,0,0,1,0-1.17H63.61a.59.59,0,0,1,0,1.17Z"/></g><g id="df6eb228-d17b-43a0-a2f7-3b1cf3b4861e" data-name="&lt;Group&gt;"><path id="81389fe9-4e43-4550-82d5-2c0293433405" data-name="&lt;Path&gt;" class="1bb3f79c-4590-4f71-a8b8-d4a175214bd4" d="M55.61,154.37H33.46a.59.59,0,0,1,0-1.17H55.61a.59.59,0,0,1,0,1.17Z"/></g><g id="1c500648-b5a1-48a0-b858-4eb4608dd70c" data-name="&lt;Group&gt;"><path id="f6d70ecf-44c7-4e34-b68b-2444ddb7d41b" data-name="&lt;Path&gt;" class="c23ef78e-a98b-418b-b7f8-aefff22db5ff" d="M45.73,161.23H34.58A1.6,1.6,0,0,1,33,159.64h0a1.59,1.59,0,0,1,1.59-1.59H45.73a1.59,1.59,0,0,1,1.59,1.59h0A1.6,1.6,0,0,1,45.73,161.23Z"/></g></g><g id="e2523b61-989a-4e93-a09f-f4338abe258c" data-name="&lt;Group&gt;"><g id="0516e073-d1ba-467f-a011-35b748a0b8bb" data-name="&lt;Group&gt;"><rect id="4309f776-ce1c-4799-bf61-ebb1bde519a9" data-name="&lt;Rectangle&gt;" class="1820512b-0488-40c8-a56f-f4d925ac366a" x="157.26" y="134.33" width="30.68" height="51.72" rx="3.28" ry="3.28"/><path id="e8be0f6c-4d10-4474-8c20-f3476afc9bac" data-name="&lt;Compound Path&gt;" class="1bb3f79c-4590-4f71-a8b8-d4a175214bd4" d="M184.14,186.64H161.08a4.4,4.4,0,0,1-4.4-4.4v-44.1a4.4,4.4,0,0,1,4.4-4.39h23.06a4.4,4.4,0,0,1,4.39,4.39v44.1A4.4,4.4,0,0,1,184.14,186.64Zm-23.06-51.72a3.23,3.23,0,0,0-3.23,3.22v44.1a3.23,3.23,0,0,0,3.23,3.23h23.06a3.23,3.23,0,0,0,3.22-3.23v-44.1a3.22,3.22,0,0,0-3.22-3.22Z"/></g><g id="28c186a1-3640-4948-b541-634d166c603f" data-name="&lt;Group&gt;"><g id="87aa6353-c332-4656-8cb3-63d4a4655cf3" data-name="&lt;Group&gt;"><rect id="aa700855-2ad2-4c47-830a-ea2f7421c379" data-name="&lt;Path&gt;" class="2a00ac0e-bb23-4eac-9dcf-ca78354b39c0" x="161.65" y="141.96" width="21.92" height="36.48"/></g><g id="26dd8325-ac62-4821-94da-d28b25a46d66" data-name="&lt;Group&gt;"><rect id="165477c7-7c0a-4cee-9b98-0cee1c1ec5dd" data-name="&lt;Path&gt;" class="2a00ac0e-bb23-4eac-9dcf-ca78354b39c0" x="161.65" y="141.96" width="21.92" height="36.48"/><path id="e4ce9733-ffa5-430d-854f-29c4dba9e6ec" data-name="&lt;Compound Path&gt;" class="1bb3f79c-4590-4f71-a8b8-d4a175214bd4" d="M183.56,179H161.65a.58.58,0,0,1-.59-.58V142a.58.58,0,0,1,.59-.59h21.91a.58.58,0,0,1,.59.59v36.47A.58.58,0,0,1,183.56,179Zm-21.33-1.16H183V142.54H162.23Z"/></g></g><g id="d5ab37b7-4269-4af6-b090-fde7ba711fcc" data-name="&lt;Group&gt;"><path id="0f40dc38-0b14-4063-9e30-546524264f2a" data-name="&lt;Path&gt;" class="1bb3f79c-4590-4f71-a8b8-d4a175214bd4" d="M174.32,182.34a1.72,1.72,0,1,1-1.71-1.72A1.72,1.72,0,0,1,174.32,182.34Z"/></g><g id="1fbb5601-3df1-4e4a-b92a-4cc80551a261" data-name="&lt;Group&gt;"><rect id="246d5837-0933-469a-b661-e3e5b3c549d5" data-name="&lt;Rectangle&gt;" class="1820512b-0488-40c8-a56f-f4d925ac366a" x="165.45" y="145.96" width="14.32" height="12.5"/><path id="e478f7ab-3a5e-48cb-959a-9f668c84e23e" data-name="&lt;Compound Path&gt;" class="1bb3f79c-4590-4f71-a8b8-d4a175214bd4" d="M179.76,159H165.45a.59.59,0,0,1-.59-.59V146a.59.59,0,0,1,.59-.59h14.31a.58.58,0,0,1,.59.59v12.49A.58.58,0,0,1,179.76,159ZM166,157.87h13.15V146.54H166Z"/></g><g id="58254265-8b7e-482c-b4a8-f904d5c1e663" data-name="&lt;Group&gt;"><path id="a0c23dda-aec0-4261-b70d-8f563a3796ae" data-name="&lt;Path&gt;" class="1bb3f79c-4590-4f71-a8b8-d4a175214bd4" d="M179.76,163.12H165.45a.59.59,0,0,1-.59-.58.6.6,0,0,1,.59-.59h14.31a.59.59,0,0,1,.59.59A.58.58,0,0,1,179.76,163.12Z"/></g><g id="0ee7cb2f-55b3-4855-b3e5-4fc74f69ac1f" data-name="&lt;Group&gt;"><path id="5b4ac4f4-381d-4954-be46-d69232b95a56" data-name="&lt;Path&gt;" class="1bb3f79c-4590-4f71-a8b8-d4a175214bd4" d="M179.76,166.55H165.45a.59.59,0,0,1-.59-.58.6.6,0,0,1,.59-.59h14.31a.59.59,0,0,1,.59.59A.58.58,0,0,1,179.76,166.55Z"/></g><g id="3d005581-7e4b-4ff2-b984-cfc539e19b75" data-name="&lt;Group&gt;"><path id="17d39131-114d-493f-8558-93ecf9321d42" data-name="&lt;Path&gt;" class="1bb3f79c-4590-4f71-a8b8-d4a175214bd4" d="M175.36,170h-9.91a.59.59,0,0,1-.59-.58.6.6,0,0,1,.59-.59h9.91a.59.59,0,0,1,.59.59A.58.58,0,0,1,175.36,170Z"/></g><g id="b33c5118-fde1-40bd-8d6b-debce342ec3d" data-name="&lt;Group&gt;"><path id="aab43829-04a6-40b0-8360-7b4e85b2fb4e" data-name="&lt;Path&gt;" class="c23ef78e-a98b-418b-b7f8-aefff22db5ff" d="M174.89,175h-9.07a1.15,1.15,0,0,1-1.14-1.14h0a1.15,1.15,0,0,1,1.14-1.14h9.07a1.15,1.15,0,0,1,1.15,1.14h0A1.15,1.15,0,0,1,174.89,175Z"/></g><g id="c2a828dd-52b2-420d-82f7-d96e9dbd43b6" data-name="&lt;Group&gt;"><path id="1ce1b0e0-a627-4853-a7d0-2568086f3108" data-name="&lt;Path&gt;" class="1bb3f79c-4590-4f71-a8b8-d4a175214bd4" d="M175.06,139.29h-4.91a1,1,0,0,1-1-1h0a1,1,0,0,1,1-1h4.91a1,1,0,0,1,1,1h0A1,1,0,0,1,175.06,139.29Z"/></g></g><g id="9c205312-ad19-4ca0-9465-1f4a80f4ddd9" data-name="&lt;Group&gt;"><g id="29e9bfb9-706a-4762-94ab-43262b33f557" data-name="&lt;Group&gt;"><rect id="2676dee8-5688-4b5d-8eb0-6d97769e76e1" data-name="&lt;Path&gt;" class="1820512b-0488-40c8-a56f-f4d925ac366a" x="41.25" y="192.49" width="105.13" height="7.39" rx="0.58" ry="0.58"/></g><g id="411e9a02-0aeb-4ba8-8381-ca907cdce8f3" data-name="&lt;Group&gt;"><path id="04d31dc3-d41b-4846-9ea9-87fd05bb8185" data-name="&lt;Compound Path&gt;" class="1bb3f79c-4590-4f71-a8b8-d4a175214bd4" d="M145.8,193.08v6.22h-104v-6.22h104m0-1.17h-104a1.17,1.17,0,0,0-1.17,1.17v6.22a1.17,1.17,0,0,0,1.17,1.17h104A1.16,1.16,0,0,0,147,199.3v-6.22a1.16,1.16,0,0,0-1.16-1.17Z"/></g></g><g id="da4568ff-c4a0-497f-b9e5-676ff8855cf6" data-name="&lt;Group&gt;"><g id="59ebbc8d-286c-425d-b544-fdef6f56430e" data-name="&lt;Group&gt;"><path id="375021d8-c94b-4e19-b925-2360de63d411" data-name="&lt;Path&gt;" class="1820512b-0488-40c8-a56f-f4d925ac366a" d="M155.92,199.89a.56.56,0,0,1-.5-.3.55.55,0,0,1,0-.58,13.14,13.14,0,0,1,22.7,0,.6.6,0,0,1,0,.58.57.57,0,0,1-.51.3Z"/></g><g id="dc8d9846-f347-45db-b9e9-7ff8f1a8fef8" data-name="&lt;Group&gt;"><path id="c749d6c9-5472-4e30-9041-693a0789d06e" data-name="&lt;Compound Path&gt;" class="1bb3f79c-4590-4f71-a8b8-d4a175214bd4" d="M166.77,193.08a12.54,12.54,0,0,1,10.84,6.22H155.92a12.57,12.57,0,0,1,10.85-6.22m0-1.17a13.8,13.8,0,0,0-11.85,6.8,1.14,1.14,0,0,0,0,1.17,1.16,1.16,0,0,0,1,.59h21.69a1.17,1.17,0,0,0,1-.59,1.19,1.19,0,0,0,0-1.17,13.82,13.82,0,0,0-11.85-6.8Z"/></g></g><g id="8ea80c07-d7f5-4ae7-8840-7aff1f120ff4" data-name="&lt;Group&gt;"><path id="63ff5a14-5e8d-48ef-b324-af32266989ea" data-name="&lt;Compound Path&gt;" class="1bb3f79c-4590-4f71-a8b8-d4a175214bd4" d="M136.13,67.11a.6.6,0,0,1-.43-.18.59.59,0,0,1,0-.83l3.09-2.92a.55.55,0,0,1,.48-.15.63.63,0,0,1,.18-.48l4.43-4.18a.57.57,0,0,1,.82,0,.58.58,0,0,1,0,.82l-4.42,4.18a.61.61,0,0,1-.49.16.55.55,0,0,1-.18.47L136.53,67A.58.58,0,0,1,136.13,67.11Zm12.6-11.91a.58.58,0,0,1-.42-.18.58.58,0,0,1,0-.82l3.1-2.93a.54.54,0,0,1,.48-.15.63.63,0,0,1,.18-.48l4.42-4.17a.58.58,0,1,1,.8.85l-4.42,4.17a.58.58,0,0,1-.48.16.61.61,0,0,1-.18.47l-3.1,2.93A.59.59,0,0,1,148.73,55.2Z"/></g><g id="46bea64b-f14b-47b1-a176-2d69fb02c865" data-name="&lt;Group&gt;"><path id="90ad4437-ec54-4fd6-9da7-55d0a6771aaa" data-name="&lt;Compound Path&gt;" class="1bb3f79c-4590-4f71-a8b8-d4a175214bd4" d="M108.49,61.59a.58.58,0,0,1-.58-.58l0-4.26a.58.58,0,0,1,.58-.59h0a.58.58,0,0,1,.59.58l0,4.26a.59.59,0,0,1-.58.59Zm0-7.76a.6.6,0,0,1-.59-.59l-.05-11.67a.59.59,0,0,1,.58-.59h0a.58.58,0,0,1,.59.58L109,53.24a.6.6,0,0,1-.58.59Zm-.08-17.76a.59.59,0,0,1-.59-.59l0-4.26a.58.58,0,0,1,.58-.58h0a.58.58,0,0,1,.58.58l0,4.26a.6.6,0,0,1-.58.59Zm0-7.77a.58.58,0,0,1-.58-.58l-.06-11.67a.58.58,0,0,1,.58-.59h0a.58.58,0,0,1,.58.58l0,11.68a.57.57,0,0,1-.58.58Z"/></g><g id="224774f7-f46d-45b4-a569-b79bdccfd7d3" data-name="&lt;Group&gt;"><path id="6e48271d-4a07-40ad-b2f8-49b5fcf5f7bc" data-name="&lt;Compound Path&gt;" class="1bb3f79c-4590-4f71-a8b8-d4a175214bd4" d="M80,71a.58.58,0,0,1-.39-.15l-.75-.67a.58.58,0,0,1,0-.82.6.6,0,0,1,.83,0l.74.67a.57.57,0,0,1,0,.82A.57.57,0,0,1,80,71Zm-3.37-3a.6.6,0,0,1-.39-.15L67.48,60.1a.59.59,0,0,1,0-.83.57.57,0,0,1,.82,0L77,67a.58.58,0,0,1,0,.82A.6.6,0,0,1,76.58,68ZM63.33,56.19a.57.57,0,0,1-.39-.14l-3.17-2.84a.58.58,0,1,1,.77-.87l3.18,2.83a.58.58,0,0,1-.39,1ZM57.54,51a.58.58,0,0,1-.39-.15L48.44,43.1a.58.58,0,0,1,0-.82.6.6,0,0,1,.83-.05L57.93,50a.58.58,0,0,1,0,.82A.6.6,0,0,1,57.54,51Z"/></g></g></g></g></svg>