<svg id="2340d489-f41a-404c-a2be-1313b5c58e19" preserveAspectRatio="none" data-name="Layer 1" xmlns="http://www.w3.org/2000/svg" xmlns:xlink="http://www.w3.org/1999/xlink" viewBox="0 0 1920 709.84"><defs><linearGradient id="36f36317-3ce8-425a-ab21-366fc39768d9" x1="1" y1="354.92" x2="1921" y2="354.92" gradientUnits="userSpaceOnUse"><stop offset="0" stop-color="#3e45f9"/><stop offset="1" stop-color="#6b55fa"/></linearGradient></defs><title>wave-bottom</title><path d="M1,0V709.84c87.61-8.69,156.43-24.47,208.27-39.78,32.72-9.66,39.9-13.59,67-19.5a449,449,0,0,1,59.63-9c87.93-7.13,155.25,15.16,245.87,26.89q6.46.84,13.1,1.6c104.47,12,72.18-11.14,358.41-19.5,79-2.3,131.41-3.83,184.16-2.92,24,.42,48,1.34,74.71,2.92C1353.68,659,1383,675,1480,673.06c122.2-2.47,124-28.91,255.24-43.5,76.82-8.54,132-5.67,185.72,0V0Z" transform="translate(-1)" style="fill:url(#36f36317-3ce8-425a-ab21-366fc39768d9)"/></svg>