<svg id="41df798c-afe6-44ab-8d7f-bfa312440a95" data-name="Layer 1" xmlns="http://www.w3.org/2000/svg" viewBox="0 0 186.05 49.07"><defs><style>.\32 d3e5294-b75c-47b3-861a-832f9e6193d4{fill:#fff;}</style></defs><title>logo</title><polygon class="2d3e5294-b75c-47b3-861a-832f9e6193d4" points="6.38 0.16 0 0.16 0 34.01 23.79 34.01 23.79 28.11 6.38 28.11 6.38 0.16"/><polygon class="2d3e5294-b75c-47b3-861a-832f9e6193d4" points="26.9 34.01 32.8 34.01 32.8 10 26.9 12.83 26.9 34.01"/><path class="2d3e5294-b75c-47b3-861a-832f9e6193d4" d="M28.34,13.85c0,4.59,7,4.59,7,0S28.34,9.25,28.34,13.85Z" transform="translate(-1.98 -10.4)"/><path class="2d3e5294-b75c-47b3-861a-832f9e6193d4" d="M175.87,19.84c-7.73,0-12.67,5.23-12.67,12.48C163.2,40,168.09,45,176.31,45a16.58,16.58,0,0,0,4.15-.53,12.82,12.82,0,0,0,6.09-3.33l-5.4-2.6c-.22.11-.45.21-.69.31a11.81,11.81,0,0,1-4.05.78c-4.16,0-6.73-2.13-7.11-5.08h18.62C188.83,24.78,183.85,19.84,175.87,19.84Zm-6.48,9.87c.87-3.1,3.49-4.64,6.68-4.64,3.38,0,5.8,1.54,6.19,4.64Z" transform="translate(-1.98 -10.4)"/><path class="2d3e5294-b75c-47b3-861a-832f9e6193d4" d="M128.94,23.86l-.09-.16c-1.39-2.28-4.38-3.71-7.49-3.71-7,0-12.43,4.25-12.43,12.48s5.22,12.71,12.28,12.67c2.6,0,6.21-1.35,7.64-4l.09-.19.13,1.52,5.73,2.75V22.85l-5.67-2.72Zm-7.06,15.86a6.83,6.83,0,0,1-7.06-7.25,6.79,6.79,0,0,1,7.06-7.21c4.65,0,7,3.62,7,7.23S126.53,39.72,121.88,39.72Z" transform="translate(-1.98 -10.4)"/><path class="2d3e5294-b75c-47b3-861a-832f9e6193d4" d="M97.74,20.05,97.2,20c-.32-.05-.64-.09-1-.11h0l-.55,0h-.47a12.08,12.08,0,0,0-12,12.09V54.37h5.9V42.43a.09.09,0,0,1,.13-.08,12.11,12.11,0,0,0,17.42-6.27.08.08,0,0,0,0,0,12.05,12.05,0,0,0-.77-10A12.08,12.08,0,0,0,97.74,20.05ZM100,36.15a6.4,6.4,0,0,1-2.47,1.91c-.14,0-.28.11-.43.15a5.57,5.57,0,0,1-1.83.3H95.2a6.42,6.42,0,0,1-6.09-6.62,6.49,6.49,0,0,1,5.45-6.59c.25,0,.48,0,.73,0a6.41,6.41,0,0,1,6.17,6.63A6.9,6.9,0,0,1,100,36.15Z" transform="translate(-1.98 -10.4)"/><path class="2d3e5294-b75c-47b3-861a-832f9e6193d4" d="M161.57,32.08a12.62,12.62,0,0,0-2.21-7.57,10.15,10.15,0,0,0-4.3-3.38,11.57,11.57,0,0,0-1.47-.51,11.23,11.23,0,0,0-4.14-.65c-.37,0-.74,0-1.11,0a12.12,12.12,0,0,0-6.81,2.66,11.78,11.78,0,0,0-4.17,9.39,12.61,12.61,0,0,0,2.21,7.56,10,10,0,0,0,4.3,3.38,11.61,11.61,0,0,0,1.47.52,11.23,11.23,0,0,0,4.14.65c.37,0,.74,0,1.11-.05,2.55.34,4.9,1.85,4.9,4.72,0,3.28-2.65,5.12-6,5.12-3.06,0-5.69-1.66-6.16-4.26a3.32,3.32,0,0,1-.06-.44l-5.87-2.82v2.4h0V49a10,10,0,0,0,5.85,9.14l.08,0a14.26,14.26,0,0,0,6.16,1.31c6.92,0,12-4.07,12-10.64a7.89,7.89,0,0,0-4-7.37A11.76,11.76,0,0,0,161.57,32.08Zm-12.12,6.6a6.19,6.19,0,0,1-4.16-1.52l0,0a6.87,6.87,0,0,1-2-5.05c0-4.11,2.8-6.63,6.19-6.63A6.15,6.15,0,0,1,153.64,27s0,0,0,0a6.85,6.85,0,0,1,2,5.06C155.64,36.17,152.84,38.68,149.45,38.68Z" transform="translate(-1.98 -10.4)"/><path class="2d3e5294-b75c-47b3-861a-832f9e6193d4" d="M51.89,39.23a5.41,5.41,0,0,1-1.24.16c-1.83,0-3.09-1.12-3.09-3.39V25.7h5.76a14.19,14.19,0,0,1,3.52-5.08H47.61V13.85l-5.9,2.83v3.94H37.26V25.7h4.45V36c0,5.94,3.38,8.89,8.55,8.71a13.39,13.39,0,0,0,4.25-.78h0s.6-.2,1.46-.56a14,14,0,0,1-2.79-4.57A10.84,10.84,0,0,1,51.89,39.23Z" transform="translate(-1.98 -10.4)"/><path class="2d3e5294-b75c-47b3-861a-832f9e6193d4" d="M67.89,19.84c-7.74,0-12.67,5.23-12.67,12.48C55.22,40,60.1,45,68.33,45a16.5,16.5,0,0,0,4.14-.53,12.85,12.85,0,0,0,6.1-3.33l-5.4-2.6-.7.31a11.73,11.73,0,0,1-4,.78c-4.16,0-6.72-2.13-7.11-5.08H79.93C80.85,24.78,75.87,19.84,67.89,19.84Zm-6.48,9.87c.87-3.1,3.48-4.64,6.67-4.64,3.39,0,5.81,1.54,6.19,4.64Z" transform="translate(-1.98 -10.4)"/></svg>